<?xml version="1.0" standalone="no"?>
<!DOCTYPE svg PUBLIC "-//W3C//DTD SVG 1.1//EN" "http://www.w3.org/Graphics/SVG/1.1/DTD/svg11.dtd" >
<svg xmlns="http://www.w3.org/2000/svg" xmlns:xlink="http://www.w3.org/1999/xlink" version="1.1">
<metadata>
Created by FontForge 20170910 at Wed Sep 13 11:17:31 2017
 By Jimmy Wärting
Copyright (c) 2017 by Colophon Foundry. All rights reserved.
</metadata>
<defs>
<font id="ApercuMono-Bold" horiz-adv-x="620" >
  <font-face 
    font-family="Apercu Mono"
    font-weight="700"
    font-stretch="normal"
    units-per-em="1000"
    panose-1="2 1 8 9 4 0 0 4 0 3"
    ascent="788"
    descent="-212"
    x-height="504"
    cap-height="700"
    bbox="-620 -266 680 1129"
    underline-thickness="62"
    underline-position="-160"
    unicode-range="U+000D-FB02"
  />
<missing-glyph 
d="M86 700h447v-700h-447v700zM449 76v548h-279v-548h279z" />
    <glyph glyph-name="fi" unicode="fi" 
d="M172 398h-105v106h105v31q0 86 54.5 129.5t133.5 43.5q56 0 98 -17.5t75 -58.5l-81 -77q-21 29 -41 38.5t-45 9.5q-30 0 -50 -17t-20 -49v-33h256v-504h-124v398h-132v-398h-124v398z" />
    <glyph glyph-name="fl" unicode="fl" 
d="M96 398h-64v106h64v26q0 89 46.5 133.5t127.5 44.5h277v-708h-124v602h-146q-57 0 -57 -63v-35h106v-106h-106v-398h-124v398z" />
    <glyph glyph-name=".notdef" 
d="M86 700h447v-700h-447v700zM449 76v548h-279v-548h279z" />
    <glyph glyph-name="NULL" 
 />
    <glyph glyph-name="nonmarkingreturn" unicode="&#xd;" 
 />
    <glyph glyph-name="space" unicode=" " 
 />
    <glyph glyph-name="A" unicode="A" 
d="M239 700h142l220 -700h-134l-49 163h-216l-49 -163h-134zM382 283l-72 242l-72 -242h144z" />
    <glyph glyph-name="Aacute" unicode="&#xc1;" 
d="M239 700h142l220 -700h-134l-49 163h-216l-49 -163h-134zM382 283l-72 242l-72 -242h144zM327 904h168l-137 -148h-95z" />
    <glyph glyph-name="Abreve" unicode="&#x102;" 
d="M239 700h142l220 -700h-134l-49 163h-216l-49 -163h-134zM382 283l-72 242l-72 -242h144zM224.5 819q-32.5 32 -32.5 77h91q0 -12 7.5 -20t19.5 -8t19.5 8t7.5 20h91q0 -45 -32.5 -77t-85.5 -32t-85.5 32z" />
    <glyph glyph-name="Acircumflex" unicode="&#xc2;" 
d="M239 700h142l220 -700h-134l-49 163h-216l-49 -163h-134zM382 283l-72 242l-72 -242h144zM293 930h34l171 -174h-122l-66 69l-66 -69h-122z" />
    <glyph glyph-name="Adieresis" unicode="&#xc4;" 
d="M239 700h142l220 -700h-134l-49 163h-216l-49 -163h-134zM382 283l-72 242l-72 -242h144zM156 792q-20 20 -20 51t20 51t51 20t51 -20t20 -51t-20 -51t-51 -20t-51 20zM362 792q-20 20 -20 51t20 51t51 20t51 -20t20 -51t-20 -51t-51 -20t-51 20z" />
    <glyph glyph-name="Agrave" unicode="&#xc0;" 
d="M239 700h142l220 -700h-134l-49 163h-216l-49 -163h-134zM382 283l-72 242l-72 -242h144zM126 904h168l64 -148h-95z" />
    <glyph glyph-name="Amacron" unicode="&#x100;" 
d="M239 700h142l220 -700h-134l-49 163h-216l-49 -163h-134zM382 283l-72 242l-72 -242h144zM175 888h268v-98h-268v98z" />
    <glyph glyph-name="Aogonek" unicode="&#x104;" 
d="M239 700h142l220 -700h-134l-49 163h-216l-49 -163h-134zM382 283l-72 242l-72 -242h144zM484.5 -161q-26.5 24 -26.5 66q0 28 16 53.5t41 41.5h86q-58 -47 -58 -78q0 -12 6.5 -19t19.5 -7q14 0 31 10l20 -76q-28 -15 -65 -15q-44 0 -70.5 24z" />
    <glyph glyph-name="Aring" unicode="&#xc5;" 
d="M239 700h142l220 -700h-134l-49 163h-216l-49 -163h-134zM382 283l-72 242l-72 -242h144zM236 778q-29 29 -29 73t29 73t74 29t74 -29t29 -73t-29 -73t-74 -29t-74 29zM332 828q8 9 8 23t-8 23t-22 9t-22 -9t-8 -23t8 -23t22 -9t22 9z" />
    <glyph glyph-name="Aringacute" unicode="&#x1fa;" 
d="M239 700h142l220 -700h-134l-49 163h-216l-49 -163h-134zM382 283l-72 242l-72 -242h144zM236 778q-29 29 -29 73t29 73t74 29t74 -29t29 -73t-29 -73t-74 -29t-74 29zM332 828q8 9 8 23t-8 23t-22 9t-22 -9t-8 -23t8 -23t22 -9t22 9zM327 1129h168l-137 -148h-95z" />
    <glyph glyph-name="Atilde" unicode="&#xc3;" 
d="M239 700h142l220 -700h-134l-49 163h-216l-49 -163h-134zM382 283l-72 242l-72 -242h144zM337 773q-17 6 -37 17q-18 9 -29 13.5t-26 4.5q-35 0 -64 -40l-65 52q17 39 51 63t72 24q24 0 41 -6t37 -17q18 -9 29 -13.5t26 -4.5q33 0 64 43l65 -55q-17 -39 -51 -63t-72 -24
q-24 0 -41 6z" />
    <glyph glyph-name="AE" unicode="&#xc6;" 
d="M183 700h402v-130h-174v-152h134v-130h-134v-158h184v-130h-314v187h-119l-50 -187h-123zM281 301v253h-21l-68 -253h89z" />
    <glyph glyph-name="AEacute" unicode="&#x1fc;" 
d="M183 700h402v-130h-174v-152h134v-130h-134v-158h184v-130h-314v187h-119l-50 -187h-123zM281 301v253h-21l-68 -253h89zM407 904h168l-137 -148h-95z" />
    <glyph glyph-name="B" unicode="B" 
d="M96 700h236q92 0 146 -48t54 -141q0 -43 -18 -77.5t-51 -51.5q105 -43 105 -171q0 -101 -61.5 -156t-169.5 -55h-241v700zM325 428q41 0 61.5 17.5t20.5 58.5t-21 58.5t-64 17.5h-96v-152h99zM325 120q59 0 86 24t27 70t-27 70t-86 24h-99v-188h99z" />
    <glyph glyph-name="C" unicode="C" 
d="M188.5 32q-67.5 40 -107.5 121t-40 197t40 197t107.5 121t149.5 40q199 0 263 -211l-123 -38q-19 76 -56 102.5t-84 26.5q-71 0 -119 -54t-48 -184t48 -184t119 -54q47 0 84 26.5t56 102.5l123 -38q-64 -211 -263 -211q-82 0 -149.5 40z" />
    <glyph glyph-name="Cacute" unicode="&#x106;" 
d="M188.5 32q-67.5 40 -107.5 121t-40 197t40 197t107.5 121t149.5 40q199 0 263 -211l-123 -38q-19 76 -56 102.5t-84 26.5q-71 0 -119 -54t-48 -184t48 -184t119 -54q47 0 84 26.5t56 102.5l123 -38q-64 -211 -263 -211q-82 0 -149.5 40zM355 904h168l-137 -148h-95z" />
    <glyph glyph-name="Ccaron" unicode="&#x10c;" 
d="M188.5 32q-67.5 40 -107.5 121t-40 197t40 197t107.5 121t149.5 40q199 0 263 -211l-123 -38q-19 76 -56 102.5t-84 26.5q-71 0 -119 -54t-48 -184t48 -184t119 -54q47 0 84 26.5t56 102.5l123 -38q-64 -211 -263 -211q-82 0 -149.5 40zM150 930h122l66 -69l66 69h122
l-171 -174h-34z" />
    <glyph glyph-name="Ccedilla" unicode="&#xc7;" 
d="M188.5 32q-67.5 40 -107.5 121t-40 197t40 197t107.5 121t149.5 40q199 0 263 -211l-123 -38q-19 76 -56 102.5t-84 26.5q-71 0 -119 -54t-48 -184t48 -184t119 -54q47 0 84 26.5t56 102.5l123 -38q-64 -211 -263 -211q-82 0 -149.5 40zM149 -200l141 140h90l-83 -206z
" />
    <glyph glyph-name="Ccircumflex" unicode="&#x108;" 
d="M188.5 32q-67.5 40 -107.5 121t-40 197t40 197t107.5 121t149.5 40q199 0 263 -211l-123 -38q-19 76 -56 102.5t-84 26.5q-71 0 -119 -54t-48 -184t48 -184t119 -54q47 0 84 26.5t56 102.5l123 -38q-64 -211 -263 -211q-82 0 -149.5 40zM321 930h34l171 -174h-122l-66 69
l-66 -69h-122z" />
    <glyph glyph-name="Cdotaccent" unicode="&#x10a;" 
d="M188.5 32q-67.5 40 -107.5 121t-40 197t40 197t107.5 121t149.5 40q199 0 263 -211l-123 -38q-19 76 -56 102.5t-84 26.5q-71 0 -119 -54t-48 -184t48 -184t119 -54q47 0 84 26.5t56 102.5l123 -38q-64 -211 -263 -211q-82 0 -149.5 40zM281 787q-23 23 -23 57t23 57
t57 23t57 -23t23 -57t-23 -57t-57 -23t-57 23z" />
    <glyph glyph-name="D" unicode="D" 
d="M64 700h197q92 0 168 -37.5t122 -116.5t46 -196t-46 -196t-122 -116.5t-168 -37.5h-197v700zM250 120q86 0 150.5 52t64.5 178t-64.5 178t-150.5 52h-56v-460h56z" />
    <glyph glyph-name="Eth" unicode="&#xd0;" 
d="M64 296h-42v108h42v296h197q92 0 168 -37.5t122 -116.5t46 -196t-46 -196t-122 -116.5t-168 -37.5h-197v296zM250 120q86 0 150.5 52t64.5 178t-64.5 178t-150.5 52h-56v-176h104v-108h-104v-176h56z" />
    <glyph glyph-name="Dcaron" unicode="&#x10e;" 
d="M64 700h197q92 0 168 -37.5t122 -116.5t46 -196t-46 -196t-122 -116.5t-168 -37.5h-197v700zM250 120q86 0 150.5 52t64.5 178t-64.5 178t-150.5 52h-56v-460h56zM65 930h122l66 -69l66 69h122l-171 -174h-34z" />
    <glyph glyph-name="Dcroat" unicode="&#x110;" 
d="M64 296h-42v108h42v296h197q92 0 168 -37.5t122 -116.5t46 -196t-46 -196t-122 -116.5t-168 -37.5h-197v296zM250 120q86 0 150.5 52t64.5 178t-64.5 178t-150.5 52h-56v-176h104v-108h-104v-176h56z" />
    <glyph glyph-name="E" unicode="E" 
d="M91 700h444v-120h-314v-147h264v-120h-264v-193h324v-120h-454v700z" />
    <glyph glyph-name="Eacute" unicode="&#xc9;" 
d="M91 700h444v-120h-314v-147h264v-120h-264v-193h324v-120h-454v700zM333 904h168l-137 -148h-95z" />
    <glyph glyph-name="Ebreve" unicode="&#x114;" 
d="M91 700h444v-120h-314v-147h264v-120h-264v-193h324v-120h-454v700zM230.5 819q-32.5 32 -32.5 77h91q0 -12 7.5 -20t19.5 -8t19.5 8t7.5 20h91q0 -45 -32.5 -77t-85.5 -32t-85.5 32z" />
    <glyph glyph-name="Ecaron" unicode="&#x11a;" 
d="M91 700h444v-120h-314v-147h264v-120h-264v-193h324v-120h-454v700zM128 930h122l66 -69l66 69h122l-171 -174h-34z" />
    <glyph glyph-name="Ecircumflex" unicode="&#xca;" 
d="M91 700h444v-120h-314v-147h264v-120h-264v-193h324v-120h-454v700zM299 930h34l171 -174h-122l-66 69l-66 -69h-122z" />
    <glyph glyph-name="Edieresis" unicode="&#xcb;" 
d="M91 700h444v-120h-314v-147h264v-120h-264v-193h324v-120h-454v700zM162 792q-20 20 -20 51t20 51t51 20t51 -20t20 -51t-20 -51t-51 -20t-51 20zM368 792q-20 20 -20 51t20 51t51 20t51 -20t20 -51t-20 -51t-51 -20t-51 20z" />
    <glyph glyph-name="Edotaccent" unicode="&#x116;" 
d="M91 700h444v-120h-314v-147h264v-120h-264v-193h324v-120h-454v700zM259 787q-23 23 -23 57t23 57t57 23t57 -23t23 -57t-23 -57t-57 -23t-57 23z" />
    <glyph glyph-name="Egrave" unicode="&#xc8;" 
d="M91 700h444v-120h-314v-147h264v-120h-264v-193h324v-120h-454v700zM132 904h168l64 -148h-95z" />
    <glyph glyph-name="Emacron" unicode="&#x112;" 
d="M91 700h444v-120h-314v-147h264v-120h-264v-193h324v-120h-454v700zM181 888h268v-98h-268v98z" />
    <glyph glyph-name="Eogonek" unicode="&#x118;" 
d="M91 700h444v-120h-314v-147h264v-120h-264v-193h324v-120h-454v700zM428.5 -161q-26.5 24 -26.5 66q0 28 16 53.5t41 41.5h86q-58 -47 -58 -78q0 -12 6.5 -19t19.5 -7q14 0 31 10l20 -76q-28 -15 -65 -15q-44 0 -70.5 24z" />
    <glyph glyph-name="F" unicode="F" 
d="M91 700h437v-130h-307v-145h258v-120h-258v-305h-130v700z" />
    <glyph glyph-name="G" unicode="G" 
d="M184.5 30q-60.5 38 -100.5 119t-40 201q0 126 44 206.5t106.5 116t121.5 35.5q212 0 268 -213l-123 -37q-15 70 -48.5 100t-85.5 30q-68 0 -110.5 -57t-42.5 -181t39.5 -181t102.5 -57q55 0 94 32.5t46 99.5h-134v108h259v-352h-109l-10 68q-25 -37 -60.5 -56.5
t-95.5 -19.5q-61 0 -121.5 38z" />
    <glyph glyph-name="Gbreve" unicode="&#x11e;" 
d="M184.5 30q-60.5 38 -100.5 119t-40 201q0 126 44 206.5t106.5 116t121.5 35.5q212 0 268 -213l-123 -37q-15 70 -48.5 100t-85.5 30q-68 0 -110.5 -57t-42.5 -181t39.5 -181t102.5 -57q55 0 94 32.5t46 99.5h-134v108h259v-352h-109l-10 68q-25 -37 -60.5 -56.5
t-95.5 -19.5q-61 0 -121.5 38zM231.5 819q-32.5 32 -32.5 77h91q0 -12 7.5 -20t19.5 -8t19.5 8t7.5 20h91q0 -45 -32.5 -77t-85.5 -32t-85.5 32z" />
    <glyph glyph-name="Gcircumflex" unicode="&#x11c;" 
d="M184.5 30q-60.5 38 -100.5 119t-40 201q0 126 44 206.5t106.5 116t121.5 35.5q212 0 268 -213l-123 -37q-15 70 -48.5 100t-85.5 30q-68 0 -110.5 -57t-42.5 -181t39.5 -181t102.5 -57q55 0 94 32.5t46 99.5h-134v108h259v-352h-109l-10 68q-25 -37 -60.5 -56.5
t-95.5 -19.5q-61 0 -121.5 38zM300 930h34l171 -174h-122l-66 69l-66 -69h-122z" />
    <glyph glyph-name="Gcommaaccent" unicode="&#x122;" 
d="M184.5 30q-60.5 38 -100.5 119t-40 201q0 126 44 206.5t106.5 116t121.5 35.5q212 0 268 -213l-123 -37q-15 70 -48.5 100t-85.5 30q-68 0 -110.5 -57t-42.5 -181t39.5 -181t102.5 -57q55 0 94 32.5t46 99.5h-134v108h259v-352h-109l-10 68q-25 -37 -60.5 -56.5
t-95.5 -19.5q-61 0 -121.5 38zM234 -52h152l-130 -184h-66z" />
    <glyph glyph-name="Gdotaccent" unicode="&#x120;" 
d="M184.5 30q-60.5 38 -100.5 119t-40 201q0 126 44 206.5t106.5 116t121.5 35.5q212 0 268 -213l-123 -37q-15 70 -48.5 100t-85.5 30q-68 0 -110.5 -57t-42.5 -181t39.5 -181t102.5 -57q55 0 94 32.5t46 99.5h-134v108h259v-352h-109l-10 68q-25 -37 -60.5 -56.5
t-95.5 -19.5q-61 0 -121.5 38zM260 787q-23 23 -23 57t23 57t57 23t57 -23t23 -57t-23 -57t-57 -23t-57 23z" />
    <glyph glyph-name="H" unicode="H" 
d="M68 700h130v-268h224v268h130v-700h-130v312h-224v-312h-130v700z" />
    <glyph glyph-name="Hbar" unicode="&#x126;" 
d="M68 524h-53v108h53v68h130v-68h224v68h130v-68h53v-108h-53v-524h-130v312h-224v-312h-130v524zM422 432v92h-224v-92h224z" />
    <glyph glyph-name="Hcircumflex" unicode="&#x124;" 
d="M68 700h130v-268h224v268h130v-700h-130v312h-224v-312h-130v700zM293 930h34l171 -174h-122l-66 69l-66 -69h-122z" />
    <glyph glyph-name="I" unicode="I" 
d="M97 120h148v460h-148v120h426v-120h-148v-460h148v-120h-426v120z" />
    <glyph glyph-name="IJ" unicode="&#x132;" 
d="M9 700h130v-700h-130v700zM247 40q-57 48 -68 133l128 27q9 -46 31 -67t57 -21q86 0 86 120v468h130v-454q0 -135 -56 -194.5t-160 -59.5q-91 0 -148 48z" />
    <glyph glyph-name="Iacute" unicode="&#xcd;" 
d="M97 120h148v460h-148v120h426v-120h-148v-460h148v-120h-426v120zM327 904h168l-137 -148h-95z" />
    <glyph glyph-name="Ibreve" unicode="&#x12c;" 
d="M97 120h148v460h-148v120h426v-120h-148v-460h148v-120h-426v120zM224.5 819q-32.5 32 -32.5 77h91q0 -12 7.5 -20t19.5 -8t19.5 8t7.5 20h91q0 -45 -32.5 -77t-85.5 -32t-85.5 32z" />
    <glyph glyph-name="Icircumflex" unicode="&#xce;" 
d="M97 120h148v460h-148v120h426v-120h-148v-460h148v-120h-426v120zM293 930h34l171 -174h-122l-66 69l-66 -69h-122z" />
    <glyph glyph-name="Idieresis" unicode="&#xcf;" 
d="M97 120h148v460h-148v120h426v-120h-148v-460h148v-120h-426v120zM156 792q-20 20 -20 51t20 51t51 20t51 -20t20 -51t-20 -51t-51 -20t-51 20zM362 792q-20 20 -20 51t20 51t51 20t51 -20t20 -51t-20 -51t-51 -20t-51 20z" />
    <glyph glyph-name="Idotaccent" unicode="&#x130;" 
d="M97 120h148v460h-148v120h426v-120h-148v-460h148v-120h-426v120zM253 787q-23 23 -23 57t23 57t57 23t57 -23t23 -57t-23 -57t-57 -23t-57 23z" />
    <glyph glyph-name="Igrave" unicode="&#xcc;" 
d="M97 120h148v460h-148v120h426v-120h-148v-460h148v-120h-426v120zM126 904h168l64 -148h-95z" />
    <glyph glyph-name="Imacron" unicode="&#x12a;" 
d="M97 120h148v460h-148v120h426v-120h-148v-460h148v-120h-426v120zM175 888h268v-98h-268v98z" />
    <glyph glyph-name="Iogonek" unicode="&#x12e;" 
d="M97 120h148v460h-148v120h426v-120h-148v-460h148v-120h-426v120zM406.5 -161q-26.5 24 -26.5 66q0 28 16 53.5t41 41.5h86q-58 -47 -58 -78q0 -12 6.5 -19t19.5 -7q14 0 31 10l20 -76q-28 -15 -65 -15q-44 0 -70.5 24z" />
    <glyph glyph-name="Itilde" unicode="&#x128;" 
d="M97 120h148v460h-148v120h426v-120h-148v-460h148v-120h-426v120zM337 773q-17 6 -37 17q-18 9 -29 13.5t-26 4.5q-35 0 -64 -40l-65 52q17 39 51 63t72 24q24 0 41 -6t37 -17q18 -9 29 -13.5t26 -4.5q33 0 64 43l65 -55q-17 -39 -51 -63t-72 -24q-24 0 -41 6z" />
    <glyph glyph-name="J" unicode="J" 
d="M131.5 44.5q-62.5 52.5 -73.5 138.5l128 27q9 -46 36 -72t66 -26q44 0 68.5 27.5t24.5 92.5v468h130v-454q0 -136 -57.5 -195t-165.5 -59q-94 0 -156.5 52.5z" />
    <glyph glyph-name="Jcircumflex" unicode="&#x134;" 
d="M131.5 44.5q-62.5 52.5 -73.5 138.5l128 27q9 -46 36 -72t66 -26q44 0 68.5 27.5t24.5 92.5v468h130v-454q0 -136 -57.5 -195t-165.5 -59q-94 0 -156.5 52.5zM429 930h34l171 -174h-122l-66 69l-66 -69h-122z" />
    <glyph glyph-name="K" unicode="K" 
d="M57 700h130v-261l201 261h157l-245 -312l263 -388h-158l-218 332v-332h-130v700z" />
    <glyph glyph-name="Kcommaaccent" unicode="&#x136;" 
d="M57 700h130v-261l201 261h157l-245 -312l263 -388h-158l-218 332v-332h-130v700zM203 -52h152l-130 -184h-66z" />
    <glyph glyph-name="L" unicode="L" 
d="M88 700h130v-580h315v-120h-445v700z" />
    <glyph glyph-name="Lacute" unicode="&#x139;" 
d="M88 700h130v-580h315v-120h-445v700zM170 904h168l-137 -148h-95z" />
    <glyph glyph-name="Lcaron" unicode="&#x13d;" 
d="M88 700h130v-580h315v-120h-445v700zM399 726h136l-82 -184h-79z" />
    <glyph glyph-name="Lcommaaccent" unicode="&#x13b;" 
d="M88 700h130v-580h315v-120h-445v700zM244 -52h152l-130 -184h-66z" />
    <glyph glyph-name="Ldot" unicode="&#x13f;" 
d="M88 700h130v-580h315v-120h-445v700zM366.5 310.5q-25.5 25.5 -25.5 63.5t25.5 63.5t63.5 25.5t63.5 -25.5t25.5 -63.5t-25.5 -63.5t-63.5 -25.5t-63.5 25.5z" />
    <glyph glyph-name="Lslash" unicode="&#x141;" 
d="M88 700h130v-580h315v-120h-445v700zM1 319l350 162l47 -98l-351 -163z" />
    <glyph glyph-name="M" unicode="M" 
d="M44 700h123l143 -348l143 348h123v-700h-117v433l-116 -252h-66l-116 252v-433h-117v700z" />
    <glyph glyph-name="N" unicode="N" 
d="M71 700h120l237 -450v450h120v-700h-120l-237 448v-448h-120v700z" />
    <glyph glyph-name="Nacute" unicode="&#x143;" 
d="M71 700h120l237 -450v450h120v-700h-120l-237 448v-448h-120v700zM327 904h168l-137 -148h-95z" />
    <glyph glyph-name="Ncaron" unicode="&#x147;" 
d="M71 700h120l237 -450v450h120v-700h-120l-237 448v-448h-120v700zM122 930h122l66 -69l66 69h122l-171 -174h-34z" />
    <glyph glyph-name="Ncommaaccent" unicode="&#x145;" 
d="M71 700h120l237 -450v450h120v-700h-120l-237 448v-448h-120v700zM234 -52h152l-130 -184h-66z" />
    <glyph glyph-name="Eng" unicode="&#x14a;" 
d="M328 -92q44 0 70.5 20.5t29.5 71.5l-237 448v-448h-120v700h120l237 -450v450h120v-700q0 -212 -220 -212v120z" />
    <glyph glyph-name="Ntilde" unicode="&#xd1;" 
d="M71 700h120l237 -450v450h120v-700h-120l-237 448v-448h-120v700zM337 773q-17 6 -37 17q-18 9 -29 13.5t-26 4.5q-35 0 -64 -40l-65 52q17 39 51 63t72 24q24 0 41 -6t37 -17q18 -9 29 -13.5t26 -4.5q33 0 64 43l65 -55q-17 -39 -51 -63t-72 -24q-24 0 -41 6z" />
    <glyph glyph-name="O" unicode="O" 
d="M170.5 32.5q-61.5 40.5 -97 121t-35.5 196.5t35.5 196.5t97 121t139.5 40.5t139.5 -40.5t97 -121t35.5 -196.5t-35.5 -196.5t-97 -121t-139.5 -40.5t-139.5 40.5zM412.5 169q39.5 57 39.5 181t-39.5 181t-102.5 57t-102.5 -57t-39.5 -181t39.5 -181t102.5 -57t102.5 57z
" />
    <glyph glyph-name="Oacute" unicode="&#xd3;" 
d="M170.5 32.5q-61.5 40.5 -97 121t-35.5 196.5t35.5 196.5t97 121t139.5 40.5t139.5 -40.5t97 -121t35.5 -196.5t-35.5 -196.5t-97 -121t-139.5 -40.5t-139.5 40.5zM412.5 169q39.5 57 39.5 181t-39.5 181t-102.5 57t-102.5 -57t-39.5 -181t39.5 -181t102.5 -57t102.5 57z
M327 904h168l-137 -148h-95z" />
    <glyph glyph-name="Obreve" unicode="&#x14e;" 
d="M170.5 32.5q-61.5 40.5 -97 121t-35.5 196.5t35.5 196.5t97 121t139.5 40.5t139.5 -40.5t97 -121t35.5 -196.5t-35.5 -196.5t-97 -121t-139.5 -40.5t-139.5 40.5zM412.5 169q39.5 57 39.5 181t-39.5 181t-102.5 57t-102.5 -57t-39.5 -181t39.5 -181t102.5 -57t102.5 57z
M224.5 819q-32.5 32 -32.5 77h91q0 -12 7.5 -20t19.5 -8t19.5 8t7.5 20h91q0 -45 -32.5 -77t-85.5 -32t-85.5 32z" />
    <glyph glyph-name="Ocircumflex" unicode="&#xd4;" 
d="M170.5 32.5q-61.5 40.5 -97 121t-35.5 196.5t35.5 196.5t97 121t139.5 40.5t139.5 -40.5t97 -121t35.5 -196.5t-35.5 -196.5t-97 -121t-139.5 -40.5t-139.5 40.5zM412.5 169q39.5 57 39.5 181t-39.5 181t-102.5 57t-102.5 -57t-39.5 -181t39.5 -181t102.5 -57t102.5 57z
M293 930h34l171 -174h-122l-66 69l-66 -69h-122z" />
    <glyph glyph-name="Odieresis" unicode="&#xd6;" 
d="M170.5 32.5q-61.5 40.5 -97 121t-35.5 196.5t35.5 196.5t97 121t139.5 40.5t139.5 -40.5t97 -121t35.5 -196.5t-35.5 -196.5t-97 -121t-139.5 -40.5t-139.5 40.5zM412.5 169q39.5 57 39.5 181t-39.5 181t-102.5 57t-102.5 -57t-39.5 -181t39.5 -181t102.5 -57t102.5 57z
M156 792q-20 20 -20 51t20 51t51 20t51 -20t20 -51t-20 -51t-51 -20t-51 20zM362 792q-20 20 -20 51t20 51t51 20t51 -20t20 -51t-20 -51t-51 -20t-51 20z" />
    <glyph glyph-name="Ograve" unicode="&#xd2;" 
d="M170.5 32.5q-61.5 40.5 -97 121t-35.5 196.5t35.5 196.5t97 121t139.5 40.5t139.5 -40.5t97 -121t35.5 -196.5t-35.5 -196.5t-97 -121t-139.5 -40.5t-139.5 40.5zM412.5 169q39.5 57 39.5 181t-39.5 181t-102.5 57t-102.5 -57t-39.5 -181t39.5 -181t102.5 -57t102.5 57z
M126 904h168l64 -148h-95z" />
    <glyph glyph-name="Ohungarumlaut" unicode="&#x150;" 
d="M170.5 32.5q-61.5 40.5 -97 121t-35.5 196.5t35.5 196.5t97 121t139.5 40.5t139.5 -40.5t97 -121t35.5 -196.5t-35.5 -196.5t-97 -121t-139.5 -40.5t-139.5 40.5zM412.5 169q39.5 57 39.5 181t-39.5 181t-102.5 57t-102.5 -57t-39.5 -181t39.5 -181t102.5 -57t102.5 57z
M201 904h168l-138 -148h-94zM404 904h168l-138 -148h-94z" />
    <glyph glyph-name="Omacron" unicode="&#x14c;" 
d="M170.5 32.5q-61.5 40.5 -97 121t-35.5 196.5t35.5 196.5t97 121t139.5 40.5t139.5 -40.5t97 -121t35.5 -196.5t-35.5 -196.5t-97 -121t-139.5 -40.5t-139.5 40.5zM412.5 169q39.5 57 39.5 181t-39.5 181t-102.5 57t-102.5 -57t-39.5 -181t39.5 -181t102.5 -57t102.5 57z
M175 888h268v-98h-268v98z" />
    <glyph glyph-name="Oslash" unicode="&#xd8;" 
d="M170.5 32.5q-61.5 40.5 -97 121t-35.5 196.5t35.5 196.5t97 121t139.5 40.5t139.5 -40.5t97 -121t35.5 -196.5t-35.5 -196.5t-97 -121t-139.5 -40.5t-139.5 40.5zM412.5 169q39.5 57 39.5 181t-39.5 181t-102.5 57t-102.5 -57t-39.5 -181t39.5 -181t102.5 -57t102.5 57z
M-12 22l558 719l86 -63l-558 -719z" />
    <glyph glyph-name="Otilde" unicode="&#xd5;" 
d="M170.5 32.5q-61.5 40.5 -97 121t-35.5 196.5t35.5 196.5t97 121t139.5 40.5t139.5 -40.5t97 -121t35.5 -196.5t-35.5 -196.5t-97 -121t-139.5 -40.5t-139.5 40.5zM412.5 169q39.5 57 39.5 181t-39.5 181t-102.5 57t-102.5 -57t-39.5 -181t39.5 -181t102.5 -57t102.5 57z
M337 773q-17 6 -37 17q-18 9 -29 13.5t-26 4.5q-35 0 -64 -40l-65 52q17 39 51 63t72 24q24 0 41 -6t37 -17q18 -9 29 -13.5t26 -4.5q33 0 64 43l65 -55q-17 -39 -51 -63t-72 -24q-24 0 -41 6z" />
    <glyph glyph-name="OE" unicode="&#x152;" 
d="M99 88q-71 88 -71 262t71 262t190 88h288v-124h-167v-141h140v-124h-140v-187h177v-124h-298q-119 0 -190 88zM280 584q-64 0 -92 -66.5t-28 -167.5q0 -111 27 -168.5t93 -57.5v460z" />
    <glyph glyph-name="P" unicode="P" 
d="M99 700h254q107 0 163 -58.5t56 -154.5t-56 -154.5t-163 -58.5h-124v-274h-130v700zM348 394q44 0 68 23t24 70t-24 70t-68 23h-119v-186h119z" />
    <glyph glyph-name="Thorn" unicode="&#xde;" 
d="M90 700h130v-137h134q107 0 163 -58.5t56 -154.5t-56 -154.5t-163 -58.5h-134v-137h-130v700zM349 257q44 0 68 23t24 70t-24 70t-68 23h-129v-186h129z" />
    <glyph glyph-name="Q" unicode="Q" 
d="M511 -10l-51 50q-64 -48 -150 -48q-78 0 -139.5 40.5t-97 121t-35.5 196.5t35.5 196.5t97 121t139.5 40.5t139.5 -40.5t97 -121t35.5 -196.5q0 -124 -42 -210l60 -58zM370 127l-84 81l89 92l65 -63q12 47 12 113q0 124 -39.5 181t-102.5 57t-102.5 -57t-39.5 -181
t39.5 -181t102.5 -57q32 0 60 15z" />
    <glyph glyph-name="R" unicode="R" 
d="M70 700h255q102 0 157.5 -54.5t55.5 -144.5q0 -70 -34 -119.5t-97 -68.5l194 -313h-145l-188 302h-68v-302h-130v700zM326 422q38 0 60 19t22 60t-22 60t-60 19h-126v-158h126z" />
    <glyph glyph-name="Racute" unicode="&#x154;" 
d="M70 700h255q102 0 157.5 -54.5t55.5 -144.5q0 -70 -34 -119.5t-97 -68.5l194 -313h-145l-188 302h-68v-302h-130v700zM326 422q38 0 60 19t22 60t-22 60t-60 19h-126v-158h126zM277 904h168l-137 -148h-95z" />
    <glyph glyph-name="Rcaron" unicode="&#x158;" 
d="M70 700h255q102 0 157.5 -54.5t55.5 -144.5q0 -70 -34 -119.5t-97 -68.5l194 -313h-145l-188 302h-68v-302h-130v700zM326 422q38 0 60 19t22 60t-22 60t-60 19h-126v-158h126zM72 930h122l66 -69l66 69h122l-171 -174h-34z" />
    <glyph glyph-name="Rcommaaccent" unicode="&#x156;" 
d="M70 700h255q102 0 157.5 -54.5t55.5 -144.5q0 -70 -34 -119.5t-97 -68.5l194 -313h-145l-188 302h-68v-302h-130v700zM326 422q38 0 60 19t22 60t-22 60t-60 19h-126v-158h126zM244 -52h152l-130 -184h-66z" />
    <glyph glyph-name="S" unicode="S" 
d="M142.5 45q-71.5 53 -91.5 153l115 43q12 -56 48.5 -92.5t105.5 -36.5q47 0 74.5 23.5t27.5 67.5q0 29 -15 47t-45 31t-93 33q-87 28 -130 75.5t-43 125.5q0 57 27.5 101t77.5 68t116 24q87 0 141.5 -41.5t77.5 -108.5l-105 -53q-16 43 -46 63t-68 20t-64.5 -20t-26.5 -56
q0 -40 30 -61.5t103 -40.5q92 -24 142.5 -69.5t50.5 -132.5q0 -106 -65 -161t-171 -55q-102 0 -173.5 53z" />
    <glyph glyph-name="Sacute" unicode="&#x15a;" 
d="M142.5 45q-71.5 53 -91.5 153l115 43q12 -56 48.5 -92.5t105.5 -36.5q47 0 74.5 23.5t27.5 67.5q0 29 -15 47t-45 31t-93 33q-87 28 -130 75.5t-43 125.5q0 57 27.5 101t77.5 68t116 24q87 0 141.5 -41.5t77.5 -108.5l-105 -53q-16 43 -46 63t-68 20t-64.5 -20t-26.5 -56
q0 -40 30 -61.5t103 -40.5q92 -24 142.5 -69.5t50.5 -132.5q0 -106 -65 -161t-171 -55q-102 0 -173.5 53zM334 904h168l-137 -148h-95z" />
    <glyph glyph-name="Scaron" unicode="&#x160;" 
d="M142.5 45q-71.5 53 -91.5 153l115 43q12 -56 48.5 -92.5t105.5 -36.5q47 0 74.5 23.5t27.5 67.5q0 29 -15 47t-45 31t-93 33q-87 28 -130 75.5t-43 125.5q0 57 27.5 101t77.5 68t116 24q87 0 141.5 -41.5t77.5 -108.5l-105 -53q-16 43 -46 63t-68 20t-64.5 -20t-26.5 -56
q0 -40 30 -61.5t103 -40.5q92 -24 142.5 -69.5t50.5 -132.5q0 -106 -65 -161t-171 -55q-102 0 -173.5 53zM129 930h122l66 -69l66 69h122l-171 -174h-34z" />
    <glyph glyph-name="Scedilla" unicode="&#x15e;" 
d="M142.5 45q-71.5 53 -91.5 153l115 43q12 -56 48.5 -92.5t105.5 -36.5q47 0 74.5 23.5t27.5 67.5q0 29 -15 47t-45 31t-93 33q-87 28 -130 75.5t-43 125.5q0 57 27.5 101t77.5 68t116 24q87 0 141.5 -41.5t77.5 -108.5l-105 -53q-16 43 -46 63t-68 20t-64.5 -20t-26.5 -56
q0 -40 30 -61.5t103 -40.5q92 -24 142.5 -69.5t50.5 -132.5q0 -106 -65 -161t-171 -55q-102 0 -173.5 53zM121 -200l141 140h90l-83 -206z" />
    <glyph glyph-name="Scircumflex" unicode="&#x15c;" 
d="M142.5 45q-71.5 53 -91.5 153l115 43q12 -56 48.5 -92.5t105.5 -36.5q47 0 74.5 23.5t27.5 67.5q0 29 -15 47t-45 31t-93 33q-87 28 -130 75.5t-43 125.5q0 57 27.5 101t77.5 68t116 24q87 0 141.5 -41.5t77.5 -108.5l-105 -53q-16 43 -46 63t-68 20t-64.5 -20t-26.5 -56
q0 -40 30 -61.5t103 -40.5q92 -24 142.5 -69.5t50.5 -132.5q0 -106 -65 -161t-171 -55q-102 0 -173.5 53zM300 930h34l171 -174h-122l-66 69l-66 -69h-122z" />
    <glyph glyph-name="Scommaaccent" unicode="&#x218;" 
d="M142.5 45q-71.5 53 -91.5 153l115 43q12 -56 48.5 -92.5t105.5 -36.5q47 0 74.5 23.5t27.5 67.5q0 29 -15 47t-45 31t-93 33q-87 28 -130 75.5t-43 125.5q0 57 27.5 101t77.5 68t116 24q87 0 141.5 -41.5t77.5 -108.5l-105 -53q-16 43 -46 63t-68 20t-64.5 -20t-26.5 -56
q0 -40 30 -61.5t103 -40.5q92 -24 142.5 -69.5t50.5 -132.5q0 -106 -65 -161t-171 -55q-102 0 -173.5 53zM234 -52h152l-130 -184h-66z" />
    <glyph glyph-name="uni1E9E" unicode="&#x1e9e;" 
d="M236 9v120q61 -17 99 -17q56 0 85 24.5t29 81.5q0 54 -39 85.5t-112 31.5h-19v49l89 196h-120q-37 0 -59 -25.5t-22 -73.5v-481h-130v492q0 66 27.5 113t75.5 71t108 24h277v-55l-111 -229q48 -6 87 -32.5t60.5 -67t21.5 -85.5q0 -72 -28.5 -126t-81 -83.5t-123.5 -29.5
q-47 0 -114 17z" />
    <glyph glyph-name="T" unicode="T" 
d="M245 580h-197v120h524v-120h-197v-580h-130v580z" />
    <glyph glyph-name="Tbar" unicode="&#x166;" 
d="M245 580h-197v120h524v-120h-197v-580h-130v580zM122 404h376v-108h-376v108z" />
    <glyph glyph-name="Tcaron" unicode="&#x164;" 
d="M245 580h-197v120h524v-120h-197v-580h-130v580zM122 930h122l66 -69l66 69h122l-171 -174h-34z" />
    <glyph glyph-name="uni0162" unicode="&#x162;" 
d="M245 580h-197v120h524v-120h-197v-580h-130v580zM121 -200l141 140h90l-83 -206z" />
    <glyph glyph-name="uni021A" unicode="&#x21a;" 
d="M245 580h-197v120h524v-120h-197v-580h-130v580zM234 -52h152l-130 -184h-66z" />
    <glyph glyph-name="U" unicode="U" 
d="M128 61.5q-69 69.5 -69 204.5v434h130v-436q0 -76 31 -114t90 -38q65 0 93 37t28 115v436h130v-434q0 -135 -69 -204.5t-182 -69.5t-182 69.5z" />
    <glyph glyph-name="Uacute" unicode="&#xda;" 
d="M128 61.5q-69 69.5 -69 204.5v434h130v-436q0 -76 31 -114t90 -38q65 0 93 37t28 115v436h130v-434q0 -135 -69 -204.5t-182 -69.5t-182 69.5zM327 904h168l-137 -148h-95z" />
    <glyph glyph-name="Ubreve" unicode="&#x16c;" 
d="M128 61.5q-69 69.5 -69 204.5v434h130v-436q0 -76 31 -114t90 -38q65 0 93 37t28 115v436h130v-434q0 -135 -69 -204.5t-182 -69.5t-182 69.5zM224.5 819q-32.5 32 -32.5 77h91q0 -12 7.5 -20t19.5 -8t19.5 8t7.5 20h91q0 -45 -32.5 -77t-85.5 -32t-85.5 32z" />
    <glyph glyph-name="Ucircumflex" unicode="&#xdb;" 
d="M128 61.5q-69 69.5 -69 204.5v434h130v-436q0 -76 31 -114t90 -38q65 0 93 37t28 115v436h130v-434q0 -135 -69 -204.5t-182 -69.5t-182 69.5zM293 930h34l171 -174h-122l-66 69l-66 -69h-122z" />
    <glyph glyph-name="Udieresis" unicode="&#xdc;" 
d="M128 61.5q-69 69.5 -69 204.5v434h130v-436q0 -76 31 -114t90 -38q65 0 93 37t28 115v436h130v-434q0 -135 -69 -204.5t-182 -69.5t-182 69.5zM156 792q-20 20 -20 51t20 51t51 20t51 -20t20 -51t-20 -51t-51 -20t-51 20zM362 792q-20 20 -20 51t20 51t51 20t51 -20
t20 -51t-20 -51t-51 -20t-51 20z" />
    <glyph glyph-name="Ugrave" unicode="&#xd9;" 
d="M128 61.5q-69 69.5 -69 204.5v434h130v-436q0 -76 31 -114t90 -38q65 0 93 37t28 115v436h130v-434q0 -135 -69 -204.5t-182 -69.5t-182 69.5zM126 904h168l64 -148h-95z" />
    <glyph glyph-name="Uhungarumlaut" unicode="&#x170;" 
d="M128 61.5q-69 69.5 -69 204.5v434h130v-436q0 -76 31 -114t90 -38q65 0 93 37t28 115v436h130v-434q0 -135 -69 -204.5t-182 -69.5t-182 69.5zM201 904h168l-138 -148h-94zM404 904h168l-138 -148h-94z" />
    <glyph glyph-name="Umacron" unicode="&#x16a;" 
d="M128 61.5q-69 69.5 -69 204.5v434h130v-436q0 -76 31 -114t90 -38q65 0 93 37t28 115v436h130v-434q0 -135 -69 -204.5t-182 -69.5t-182 69.5zM175 888h268v-98h-268v98z" />
    <glyph glyph-name="Uogonek" unicode="&#x172;" 
d="M128 61.5q-69 69.5 -69 204.5v434h130v-436q0 -76 31 -114t90 -38q65 0 93 37t28 115v436h130v-434q0 -135 -69 -204.5t-182 -69.5t-182 69.5zM264.5 -161q-26.5 24 -26.5 66q0 28 16 53.5t41 41.5h86q-58 -47 -58 -78q0 -12 6.5 -19t19.5 -7q14 0 31 10l20 -76
q-28 -15 -65 -15q-44 0 -70.5 24z" />
    <glyph glyph-name="Uring" unicode="&#x16e;" 
d="M128 61.5q-69 69.5 -69 204.5v434h130v-436q0 -76 31 -114t90 -38q65 0 93 37t28 115v436h130v-434q0 -135 -69 -204.5t-182 -69.5t-182 69.5zM236 778q-29 29 -29 73t29 73t74 29t74 -29t29 -73t-29 -73t-74 -29t-74 29zM332 828q8 9 8 23t-8 23t-22 9t-22 -9t-8 -23
t8 -23t22 -9t22 9z" />
    <glyph glyph-name="Utilde" unicode="&#x168;" 
d="M128 61.5q-69 69.5 -69 204.5v434h130v-436q0 -76 31 -114t90 -38q65 0 93 37t28 115v436h130v-434q0 -135 -69 -204.5t-182 -69.5t-182 69.5zM337 773q-17 6 -37 17q-18 9 -29 13.5t-26 4.5q-35 0 -64 -40l-65 52q17 39 51 63t72 24q24 0 41 -6t37 -17q18 -9 29 -13.5
t26 -4.5q33 0 64 43l65 -55q-17 -39 -51 -63t-72 -24q-24 0 -41 6z" />
    <glyph glyph-name="V" unicode="V" 
d="M11 700h138l161 -517l161 517h138l-228 -700h-142z" />
    <glyph glyph-name="W" unicode="W" 
d="M11 700h124l33 -440l102 307h80l102 -307l33 440h124l-67 -700h-138l-94 327l-114 -327h-118z" />
    <glyph glyph-name="Wacute" unicode="&#x1e82;" 
d="M11 700h124l33 -440l102 307h80l102 -307l33 440h124l-67 -700h-138l-94 327l-114 -327h-118zM327 904h168l-137 -148h-95z" />
    <glyph glyph-name="Wcircumflex" unicode="&#x174;" 
d="M11 700h124l33 -440l102 307h80l102 -307l33 440h124l-67 -700h-138l-94 327l-114 -327h-118zM293 930h34l171 -174h-122l-66 69l-66 -69h-122z" />
    <glyph glyph-name="Wdieresis" unicode="&#x1e84;" 
d="M11 700h124l33 -440l102 307h80l102 -307l33 440h124l-67 -700h-138l-94 327l-114 -327h-118zM156 792q-20 20 -20 51t20 51t51 20t51 -20t20 -51t-20 -51t-51 -20t-51 20zM362 792q-20 20 -20 51t20 51t51 20t51 -20t20 -51t-20 -51t-51 -20t-51 20z" />
    <glyph glyph-name="Wgrave" unicode="&#x1e80;" 
d="M11 700h124l33 -440l102 307h80l102 -307l33 440h124l-67 -700h-138l-94 327l-114 -327h-118zM126 904h168l64 -148h-95z" />
    <glyph glyph-name="X" unicode="X" 
d="M236 376l-176 324h140l110 -214l110 214h140l-176 -324l207 -376h-140l-141 266l-141 -266h-140z" />
    <glyph glyph-name="Y" unicode="Y" 
d="M250 258l-222 442h140l142 -303l142 303h140l-222 -442v-258h-120v258z" />
    <glyph glyph-name="Yacute" unicode="&#xdd;" 
d="M250 258l-222 442h140l142 -303l142 303h140l-222 -442v-258h-120v258zM327 904h168l-137 -148h-95z" />
    <glyph glyph-name="Ycircumflex" unicode="&#x176;" 
d="M250 258l-222 442h140l142 -303l142 303h140l-222 -442v-258h-120v258zM293 930h34l171 -174h-122l-66 69l-66 -69h-122z" />
    <glyph glyph-name="Ydieresis" unicode="&#x178;" 
d="M250 258l-222 442h140l142 -303l142 303h140l-222 -442v-258h-120v258zM156 792q-20 20 -20 51t20 51t51 20t51 -20t20 -51t-20 -51t-51 -20t-51 20zM362 792q-20 20 -20 51t20 51t51 20t51 -20t20 -51t-20 -51t-51 -20t-51 20z" />
    <glyph glyph-name="Ygrave" unicode="&#x1ef2;" 
d="M250 258l-222 442h140l142 -303l142 303h140l-222 -442v-258h-120v258zM126 904h168l64 -148h-95z" />
    <glyph glyph-name="Z" unicode="Z" 
d="M73 60l300 520h-286v120h456v-60l-300 -520h311v-120h-481v60z" />
    <glyph glyph-name="Zacute" unicode="&#x179;" 
d="M73 60l300 520h-286v120h456v-60l-300 -520h311v-120h-481v60zM327 904h168l-137 -148h-95z" />
    <glyph glyph-name="Zcaron" unicode="&#x17d;" 
d="M73 60l300 520h-286v120h456v-60l-300 -520h311v-120h-481v60zM122 930h122l66 -69l66 69h122l-171 -174h-34z" />
    <glyph glyph-name="Zdotaccent" unicode="&#x17b;" 
d="M73 60l300 520h-286v120h456v-60l-300 -520h311v-120h-481v60zM253 787q-23 23 -23 57t23 57t57 23t57 -23t23 -57t-23 -57t-57 -23t-57 23z" />
    <glyph glyph-name="uni01B5" unicode="&#x1b5;" 
d="M73 60l135 236h-107v108h170l102 176h-286v120h456v-60l-137 -236h102v-108h-164l-101 -176h311v-120h-481v60z" />
    <glyph glyph-name="a" unicode="a" 
d="M144 32q-43 40 -43 113q0 49 27 86.5t76 58t112 20.5h84v22q0 40 -25 60t-63 20q-29 0 -52.5 -16.5t-34.5 -53.5l-105 30q18 63 70.5 101.5t121.5 38.5q98 0 152 -48.5t54 -162.5v-301h-96l-13 64q-59 -72 -155 -72q-67 0 -110 40zM332.5 107q29.5 14 48 39.5t18.5 59.5
v11h-91q-45 0 -69.5 -17.5t-24.5 -53.5q0 -21 15 -37t42 -16q32 0 61.5 14z" />
    <glyph glyph-name="aacute" unicode="&#xe1;" 
d="M144 32q-43 40 -43 113q0 49 27 86.5t76 58t112 20.5h84v22q0 40 -25 60t-63 20q-29 0 -52.5 -16.5t-34.5 -53.5l-105 30q18 63 70.5 101.5t121.5 38.5q98 0 152 -48.5t54 -162.5v-301h-96l-13 64q-59 -72 -155 -72q-67 0 -110 40zM332.5 107q29.5 14 48 39.5t18.5 59.5
v11h-91q-45 0 -69.5 -17.5t-24.5 -53.5q0 -21 15 -37t42 -16q32 0 61.5 14zM328 708h168l-137 -148h-95z" />
    <glyph glyph-name="abreve" unicode="&#x103;" 
d="M144 32q-43 40 -43 113q0 49 27 86.5t76 58t112 20.5h84v22q0 40 -25 60t-63 20q-29 0 -52.5 -16.5t-34.5 -53.5l-105 30q18 63 70.5 101.5t121.5 38.5q98 0 152 -48.5t54 -162.5v-301h-96l-13 64q-59 -72 -155 -72q-67 0 -110 40zM332.5 107q29.5 14 48 39.5t18.5 59.5
v11h-91q-45 0 -69.5 -17.5t-24.5 -53.5q0 -21 15 -37t42 -16q32 0 61.5 14zM225.5 623q-32.5 32 -32.5 77h91q0 -12 7.5 -20t19.5 -8t19.5 8t7.5 20h91q0 -45 -32.5 -77t-85.5 -32t-85.5 32z" />
    <glyph glyph-name="acircumflex" unicode="&#xe2;" 
d="M144 32q-43 40 -43 113q0 49 27 86.5t76 58t112 20.5h84v22q0 40 -25 60t-63 20q-29 0 -52.5 -16.5t-34.5 -53.5l-105 30q18 63 70.5 101.5t121.5 38.5q98 0 152 -48.5t54 -162.5v-301h-96l-13 64q-59 -72 -155 -72q-67 0 -110 40zM332.5 107q29.5 14 48 39.5t18.5 59.5
v11h-91q-45 0 -69.5 -17.5t-24.5 -53.5q0 -21 15 -37t42 -16q32 0 61.5 14zM294 734h34l171 -174h-122l-66 69l-66 -69h-122z" />
    <glyph glyph-name="adieresis" unicode="&#xe4;" 
d="M144 32q-43 40 -43 113q0 49 27 86.5t76 58t112 20.5h84v22q0 40 -25 60t-63 20q-29 0 -52.5 -16.5t-34.5 -53.5l-105 30q18 63 70.5 101.5t121.5 38.5q98 0 152 -48.5t54 -162.5v-301h-96l-13 64q-59 -72 -155 -72q-67 0 -110 40zM332.5 107q29.5 14 48 39.5t18.5 59.5
v11h-91q-45 0 -69.5 -17.5t-24.5 -53.5q0 -21 15 -37t42 -16q32 0 61.5 14zM157 596q-20 20 -20 51t20 51t51 20t51 -20t20 -51t-20 -51t-51 -20t-51 20zM363 596q-20 20 -20 51t20 51t51 20t51 -20t20 -51t-20 -51t-51 -20t-51 20z" />
    <glyph glyph-name="agrave" unicode="&#xe0;" 
d="M144 32q-43 40 -43 113q0 49 27 86.5t76 58t112 20.5h84v22q0 40 -25 60t-63 20q-29 0 -52.5 -16.5t-34.5 -53.5l-105 30q18 63 70.5 101.5t121.5 38.5q98 0 152 -48.5t54 -162.5v-301h-96l-13 64q-59 -72 -155 -72q-67 0 -110 40zM332.5 107q29.5 14 48 39.5t18.5 59.5
v11h-91q-45 0 -69.5 -17.5t-24.5 -53.5q0 -21 15 -37t42 -16q32 0 61.5 14zM140 708h168l64 -148h-95z" />
    <glyph glyph-name="amacron" unicode="&#x101;" 
d="M144 32q-43 40 -43 113q0 49 27 86.5t76 58t112 20.5h84v22q0 40 -25 60t-63 20q-29 0 -52.5 -16.5t-34.5 -53.5l-105 30q18 63 70.5 101.5t121.5 38.5q98 0 152 -48.5t54 -162.5v-301h-96l-13 64q-59 -72 -155 -72q-67 0 -110 40zM332.5 107q29.5 14 48 39.5t18.5 59.5
v11h-91q-45 0 -69.5 -17.5t-24.5 -53.5q0 -21 15 -37t42 -16q32 0 61.5 14zM176 692h268v-98h-268v98z" />
    <glyph glyph-name="aogonek" unicode="&#x105;" 
d="M537 -170q-29 -15 -65 -15q-44 0 -70.5 24t-26.5 66q0 28 16 53.5t41 41.5h-10l-13 64q-59 -72 -155 -72q-67 0 -110 40t-43 113q0 49 27 86.5t76 58t112 20.5h84v22q0 40 -25 60t-63 20q-29 0 -52.5 -16.5t-34.5 -53.5l-105 30q18 63 70.5 101.5t121.5 38.5
q98 0 152 -48.5t54 -162.5v-301q-58 -47 -58 -78q0 -12 6.5 -19t19.5 -7q14 0 31 10zM399 217h-91q-45 0 -69.5 -17.5t-24.5 -53.5q0 -21 15 -37t42 -16q32 0 61.5 14t48 39.5t18.5 59.5v11z" />
    <glyph glyph-name="aring" unicode="&#xe5;" 
d="M144 32q-43 40 -43 113q0 49 27 86.5t76 58t112 20.5h84v22q0 40 -25 60t-63 20q-29 0 -52.5 -16.5t-34.5 -53.5l-105 30q18 63 70.5 101.5t121.5 38.5q98 0 152 -48.5t54 -162.5v-301h-96l-13 64q-59 -72 -155 -72q-67 0 -110 40zM332.5 107q29.5 14 48 39.5t18.5 59.5
v11h-91q-45 0 -69.5 -17.5t-24.5 -53.5q0 -21 15 -37t42 -16q32 0 61.5 14zM237 582q-29 29 -29 73t29 73t74 29t74 -29t29 -73t-29 -73t-74 -29t-74 29zM333 632q8 9 8 23t-8 23t-22 9t-22 -9t-8 -23t8 -23t22 -9t22 9z" />
    <glyph glyph-name="aringacute" unicode="&#x1fb;" 
d="M144 32q-43 40 -43 113q0 49 27 86.5t76 58t112 20.5h84v22q0 40 -25 60t-63 20q-29 0 -52.5 -16.5t-34.5 -53.5l-105 30q18 63 70.5 101.5t121.5 38.5q98 0 152 -48.5t54 -162.5v-301h-96l-13 64q-59 -72 -155 -72q-67 0 -110 40zM332.5 107q29.5 14 48 39.5t18.5 59.5
v11h-91q-45 0 -69.5 -17.5t-24.5 -53.5q0 -21 15 -37t42 -16q32 0 61.5 14zM237 582q-29 29 -29 73t29 73t74 29t74 -29t29 -73t-29 -73t-74 -29t-74 29zM333 632q8 9 8 23t-8 23t-22 9t-22 -9t-8 -23t8 -23t22 -9t22 9zM328 945h168l-137 -148h-95z" />
    <glyph glyph-name="atilde" unicode="&#xe3;" 
d="M144 32q-43 40 -43 113q0 49 27 86.5t76 58t112 20.5h84v22q0 40 -25 60t-63 20q-29 0 -52.5 -16.5t-34.5 -53.5l-105 30q18 63 70.5 101.5t121.5 38.5q98 0 152 -48.5t54 -162.5v-301h-96l-13 64q-59 -72 -155 -72q-67 0 -110 40zM332.5 107q29.5 14 48 39.5t18.5 59.5
v11h-91q-45 0 -69.5 -17.5t-24.5 -53.5q0 -21 15 -37t42 -16q32 0 61.5 14zM338 577q-17 6 -37 17q-18 9 -29 13.5t-26 4.5q-35 0 -64 -40l-65 52q17 39 51 63t72 24q24 0 41 -6t37 -17q18 -9 29 -13.5t26 -4.5q33 0 64 43l65 -55q-17 -39 -51 -63t-72 -24q-24 0 -41 6z" />
    <glyph glyph-name="ae" unicode="&#xe6;" 
d="M76 32q-40 40 -40 112q0 80 52 123t136 43h44v21q0 51 -14 74t-45 23q-30 0 -48 -21.5t-23 -58.5l-81 22q8 60 50 101t103 41q89 0 117 -76q19 35 52 55.5t71 20.5q75 0 116 -59.5t41 -168.5v-57h-234q0 -70 18.5 -105t52.5 -35q27 0 43.5 17.5t33.5 65.5l80 -24
q-23 -78 -59.5 -116t-97.5 -38q-44 0 -75 24.5t-44 65.5q-19 -42 -55.5 -66t-88.5 -24q-65 0 -105 40zM517 310q0 51 -19.5 84.5t-53.5 33.5q-31 0 -52 -33t-21 -85h146zM251 118.5q17 31.5 17 80.5v30h-33q-47 0 -72 -18.5t-25 -55.5q0 -32 15.5 -50t42.5 -18q38 0 55 31.5
z" />
    <glyph glyph-name="aeacute" unicode="&#x1fd;" 
d="M76 32q-40 40 -40 112q0 80 52 123t136 43h44v21q0 51 -14 74t-45 23q-30 0 -48 -21.5t-23 -58.5l-81 22q8 60 50 101t103 41q89 0 117 -76q19 35 52 55.5t71 20.5q75 0 116 -59.5t41 -168.5v-57h-234q0 -70 18.5 -105t52.5 -35q27 0 43.5 17.5t33.5 65.5l80 -24
q-23 -78 -59.5 -116t-97.5 -38q-44 0 -75 24.5t-44 65.5q-19 -42 -55.5 -66t-88.5 -24q-65 0 -105 40zM517 310q0 51 -19.5 84.5t-53.5 33.5q-31 0 -52 -33t-21 -85h146zM251 118.5q17 31.5 17 80.5v30h-33q-47 0 -72 -18.5t-25 -55.5q0 -32 15.5 -50t42.5 -18q38 0 55 31.5
zM344 708h168l-137 -148h-95z" />
    <glyph glyph-name="b" unicode="b" 
d="M265.5 11q-33.5 19 -45.5 41v-52h-124v708h124v-250q17 22 51 38t71 16q71 0 122.5 -33t79 -92t27.5 -135q0 -120 -59 -190t-170 -70q-43 0 -76.5 19zM409 139q33 41 33 113q0 73 -33 113.5t-84 40.5t-83.5 -40.5t-32.5 -113.5t32.5 -113.5t83.5 -40.5t84 41z" />
    <glyph glyph-name="c" unicode="c" 
d="M186.5 27q-54.5 35 -83.5 94.5t-29 130.5t29 130.5t83.5 94.5t129.5 35q157 0 218 -139l-106 -45q-19 44 -46 61t-66 17q-53 0 -85.5 -40.5t-32.5 -113.5t32.5 -113.5t85.5 -40.5q39 0 66 17t46 61l106 -45q-61 -139 -218 -139q-75 0 -129.5 35z" />
    <glyph glyph-name="cacute" unicode="&#x107;" 
d="M186.5 27q-54.5 35 -83.5 94.5t-29 130.5t29 130.5t83.5 94.5t129.5 35q157 0 218 -139l-106 -45q-19 44 -46 61t-66 17q-53 0 -85.5 -40.5t-32.5 -113.5t32.5 -113.5t85.5 -40.5q39 0 66 17t46 61l106 -45q-61 -139 -218 -139q-75 0 -129.5 35zM333 708h168l-137 -148
h-95z" />
    <glyph glyph-name="ccaron" unicode="&#x10d;" 
d="M186.5 27q-54.5 35 -83.5 94.5t-29 130.5t29 130.5t83.5 94.5t129.5 35q157 0 218 -139l-106 -45q-19 44 -46 61t-66 17q-53 0 -85.5 -40.5t-32.5 -113.5t32.5 -113.5t85.5 -40.5q39 0 66 17t46 61l106 -45q-61 -139 -218 -139q-75 0 -129.5 35zM128 734h122l66 -69
l66 69h122l-171 -174h-34z" />
    <glyph glyph-name="ccedilla" unicode="&#xe7;" 
d="M186.5 27q-54.5 35 -83.5 94.5t-29 130.5t29 130.5t83.5 94.5t129.5 35q157 0 218 -139l-106 -45q-19 44 -46 61t-66 17q-53 0 -85.5 -40.5t-32.5 -113.5t32.5 -113.5t85.5 -40.5q39 0 66 17t46 61l106 -45q-61 -139 -218 -139q-75 0 -129.5 35zM133 -200l141 140h90
l-83 -206z" />
    <glyph glyph-name="ccircumflex" unicode="&#x109;" 
d="M186.5 27q-54.5 35 -83.5 94.5t-29 130.5t29 130.5t83.5 94.5t129.5 35q157 0 218 -139l-106 -45q-19 44 -46 61t-66 17q-53 0 -85.5 -40.5t-32.5 -113.5t32.5 -113.5t85.5 -40.5q39 0 66 17t46 61l106 -45q-61 -139 -218 -139q-75 0 -129.5 35zM299 734h34l171 -174
h-122l-66 69l-66 -69h-122z" />
    <glyph glyph-name="cdotaccent" unicode="&#x10b;" 
d="M186.5 27q-54.5 35 -83.5 94.5t-29 130.5t29 130.5t83.5 94.5t129.5 35q157 0 218 -139l-106 -45q-19 44 -46 61t-66 17q-53 0 -85.5 -40.5t-32.5 -113.5t32.5 -113.5t85.5 -40.5q39 0 66 17t46 61l106 -45q-61 -139 -218 -139q-75 0 -129.5 35zM259 592q-23 23 -23 57
t23 57t57 23t57 -23t23 -57t-23 -57t-57 -23t-57 23z" />
    <glyph glyph-name="d" unicode="d" 
d="M131.5 62.5q-59.5 70.5 -59.5 189.5t59.5 189.5t170.5 70.5q37 0 71 -16t51 -38v250h124v-708h-124v52q-12 -22 -45.5 -41t-76.5 -19q-111 0 -170.5 70.5zM402.5 138.5q32.5 40.5 32.5 113.5t-32.5 113.5t-83.5 40.5t-84 -40.5t-33 -113.5q0 -72 33 -113t84 -41
t83.5 40.5z" />
    <glyph glyph-name="eth" unicode="&#xf0;" 
d="M171 26q-56 34 -85 93t-29 133t29 133t85 93t135 34q43 0 81 -20q-29 51 -82 89l-32 -47l-75 53l29 42q-50 26 -86 39l62 91q45 -20 84 -42l33 48l76 -52l-32 -47q97 -69 144 -163t47 -227q0 -84 -29 -148t-85 -100t-135 -36t-135 34zM394 142q31 44 31 110
q-1 66 -31.5 110t-87.5 44t-88 -44t-31 -110t31 -110t88 -44t88 44z" />
    <glyph glyph-name="dcaron" unicode="&#x10f;" 
d="M71.5 62.5q-59.5 70.5 -59.5 189.5t59.5 189.5t170.5 70.5q37 0 71 -16t51 -38v250h124v-708h-124v52q-12 -22 -45.5 -41t-76.5 -19q-111 0 -170.5 70.5zM342.5 138.5q32.5 40.5 32.5 113.5t-32.5 113.5t-83.5 40.5t-84 -40.5t-33 -113.5q0 -72 33 -113t84 -41t83.5 40.5
zM544 726h136l-82 -184h-79z" />
    <glyph glyph-name="dcroat" unicode="&#x111;" 
d="M116.5 62.5q-59.5 70.5 -59.5 189.5t59.5 189.5t170.5 70.5q37 0 71 -16t51 -38v102h-103v92h103v56h124v-56h67v-92h-67v-560h-124v52q-12 -22 -45.5 -41t-76.5 -19q-111 0 -170.5 70.5zM387.5 138.5q32.5 40.5 32.5 113.5t-32.5 113.5t-83.5 40.5t-84 -40.5t-33 -113.5
q0 -72 33 -113t84 -41t83.5 40.5z" />
    <glyph glyph-name="e" unicode="e" 
d="M177.5 30.5q-54.5 38.5 -80 98t-25.5 123.5t25.5 123.5t80 98t136.5 38.5q79 0 132 -37.5t78 -94.5t25 -117v-51h-355q2 -29 17.5 -55t44 -42.5t65.5 -16.5q76 0 123 72l99 -52q-72 -126 -229 -126q-82 0 -136.5 38.5zM432 306q-10 46 -39 75t-79 29q-48 0 -79.5 -30.5
t-39.5 -73.5h237z" />
    <glyph glyph-name="eacute" unicode="&#xe9;" 
d="M177.5 30.5q-54.5 38.5 -80 98t-25.5 123.5t25.5 123.5t80 98t136.5 38.5q79 0 132 -37.5t78 -94.5t25 -117v-51h-355q2 -29 17.5 -55t44 -42.5t65.5 -16.5q76 0 123 72l99 -52q-72 -126 -229 -126q-82 0 -136.5 38.5zM432 306q-10 46 -39 75t-79 29q-48 0 -79.5 -30.5
t-39.5 -73.5h237zM330 708h168l-137 -148h-95z" />
    <glyph glyph-name="ebreve" unicode="&#x115;" 
d="M177.5 30.5q-54.5 38.5 -80 98t-25.5 123.5t25.5 123.5t80 98t136.5 38.5q79 0 132 -37.5t78 -94.5t25 -117v-51h-355q2 -29 17.5 -55t44 -42.5t65.5 -16.5q76 0 123 72l99 -52q-72 -126 -229 -126q-82 0 -136.5 38.5zM432 306q-10 46 -39 75t-79 29q-48 0 -79.5 -30.5
t-39.5 -73.5h237zM227.5 623q-32.5 32 -32.5 77h91q0 -12 7.5 -20t19.5 -8t19.5 8t7.5 20h91q0 -45 -32.5 -77t-85.5 -32t-85.5 32z" />
    <glyph glyph-name="ecaron" unicode="&#x11b;" 
d="M177.5 30.5q-54.5 38.5 -80 98t-25.5 123.5t25.5 123.5t80 98t136.5 38.5q79 0 132 -37.5t78 -94.5t25 -117v-51h-355q2 -29 17.5 -55t44 -42.5t65.5 -16.5q76 0 123 72l99 -52q-72 -126 -229 -126q-82 0 -136.5 38.5zM432 306q-10 46 -39 75t-79 29q-48 0 -79.5 -30.5
t-39.5 -73.5h237zM125 734h122l66 -69l66 69h122l-171 -174h-34z" />
    <glyph glyph-name="ecircumflex" unicode="&#xea;" 
d="M177.5 30.5q-54.5 38.5 -80 98t-25.5 123.5t25.5 123.5t80 98t136.5 38.5q79 0 132 -37.5t78 -94.5t25 -117v-51h-355q2 -29 17.5 -55t44 -42.5t65.5 -16.5q76 0 123 72l99 -52q-72 -126 -229 -126q-82 0 -136.5 38.5zM432 306q-10 46 -39 75t-79 29q-48 0 -79.5 -30.5
t-39.5 -73.5h237zM296 734h34l171 -174h-122l-66 69l-66 -69h-122z" />
    <glyph glyph-name="edieresis" unicode="&#xeb;" 
d="M177.5 30.5q-54.5 38.5 -80 98t-25.5 123.5t25.5 123.5t80 98t136.5 38.5q79 0 132 -37.5t78 -94.5t25 -117v-51h-355q2 -29 17.5 -55t44 -42.5t65.5 -16.5q76 0 123 72l99 -52q-72 -126 -229 -126q-82 0 -136.5 38.5zM432 306q-10 46 -39 75t-79 29q-48 0 -79.5 -30.5
t-39.5 -73.5h237zM159 596q-20 20 -20 51t20 51t51 20t51 -20t20 -51t-20 -51t-51 -20t-51 20zM365 596q-20 20 -20 51t20 51t51 20t51 -20t20 -51t-20 -51t-51 -20t-51 20z" />
    <glyph glyph-name="edotaccent" unicode="&#x117;" 
d="M177.5 30.5q-54.5 38.5 -80 98t-25.5 123.5t25.5 123.5t80 98t136.5 38.5q79 0 132 -37.5t78 -94.5t25 -117v-51h-355q2 -29 17.5 -55t44 -42.5t65.5 -16.5q76 0 123 72l99 -52q-72 -126 -229 -126q-82 0 -136.5 38.5zM432 306q-10 46 -39 75t-79 29q-48 0 -79.5 -30.5
t-39.5 -73.5h237zM256 592q-23 23 -23 57t23 57t57 23t57 -23t23 -57t-23 -57t-57 -23t-57 23z" />
    <glyph glyph-name="egrave" unicode="&#xe8;" 
d="M177.5 30.5q-54.5 38.5 -80 98t-25.5 123.5t25.5 123.5t80 98t136.5 38.5q79 0 132 -37.5t78 -94.5t25 -117v-51h-355q2 -29 17.5 -55t44 -42.5t65.5 -16.5q76 0 123 72l99 -52q-72 -126 -229 -126q-82 0 -136.5 38.5zM432 306q-10 46 -39 75t-79 29q-48 0 -79.5 -30.5
t-39.5 -73.5h237zM142 708h168l64 -148h-95z" />
    <glyph glyph-name="emacron" unicode="&#x113;" 
d="M177.5 30.5q-54.5 38.5 -80 98t-25.5 123.5t25.5 123.5t80 98t136.5 38.5q79 0 132 -37.5t78 -94.5t25 -117v-51h-355q2 -29 17.5 -55t44 -42.5t65.5 -16.5q76 0 123 72l99 -52q-72 -126 -229 -126q-82 0 -136.5 38.5zM432 306q-10 46 -39 75t-79 29q-48 0 -79.5 -30.5
t-39.5 -73.5h237zM178 692h268v-98h-268v98z" />
    <glyph glyph-name="eogonek" unicode="&#x119;" 
d="M177.5 30.5q-54.5 38.5 -80 98t-25.5 123.5t25.5 123.5t80 98t136.5 38.5q79 0 132 -37.5t78 -94.5t25 -117v-51h-355q2 -29 17.5 -55t44 -42.5t65.5 -16.5q76 0 123 72l99 -52q-72 -126 -229 -126q-82 0 -136.5 38.5zM432 306q-10 46 -39 75t-79 29q-48 0 -79.5 -30.5
t-39.5 -73.5h237zM270.5 -161q-26.5 24 -26.5 66q0 28 16 53.5t41 41.5h86q-58 -47 -58 -78q0 -12 6.5 -19t19.5 -7q14 0 31 10l20 -76q-28 -15 -65 -15q-44 0 -70.5 24z" />
    <glyph glyph-name="f" unicode="f" 
d="M221 398h-122v106h122v31q0 87 49 130t126 43q32 0 57 -7.5t48 -21.5l-27 -100q-28 24 -63 24q-30 0 -48 -17t-18 -49v-33h176v-106h-176v-398h-124v398z" />
    <glyph glyph-name="g" unicode="g" 
d="M152.5 -169q-63.5 43 -63.5 123q0 62 41 100q-26 31 -26 78q0 35 16.5 62t45.5 44q-35 43 -35 104q0 51 24.5 89.5t67 59.5t93.5 21q49 0 93 -22l95 50l49 -82l-72 -36q20 -35 20 -80q0 -51 -24.5 -89.5t-67 -58.5t-93.5 -20q-38 0 -73 11q-24 -14 -24 -38
q0 -18 12 -27.5t35 -9.5h103q81 0 129 -38.5t48 -109.5q0 -59 -32.5 -98t-84.5 -57.5t-112 -18.5q-101 0 -164.5 43zM365.5 293q19.5 19 19.5 49q0 31 -19.5 50.5t-49.5 19.5t-49.5 -19.5t-19.5 -50.5q0 -30 19.5 -49t49.5 -19t49.5 19zM393.5 -93q28.5 15 28.5 47
q0 29 -21 40.5t-60 11.5h-68q-34 0 -58 4q-11 -17 -11 -46q0 -35 31 -53.5t82 -18.5q48 0 76.5 15z" />
    <glyph glyph-name="gbreve" unicode="&#x11f;" 
d="M152.5 -169q-63.5 43 -63.5 123q0 62 41 100q-26 31 -26 78q0 35 16.5 62t45.5 44q-35 43 -35 104q0 51 24.5 89.5t67 59.5t93.5 21q49 0 93 -22l95 50l49 -82l-72 -36q20 -35 20 -80q0 -51 -24.5 -89.5t-67 -58.5t-93.5 -20q-38 0 -73 11q-24 -14 -24 -38
q0 -18 12 -27.5t35 -9.5h103q81 0 129 -38.5t48 -109.5q0 -59 -32.5 -98t-84.5 -57.5t-112 -18.5q-101 0 -164.5 43zM365.5 293q19.5 19 19.5 49q0 31 -19.5 50.5t-49.5 19.5t-49.5 -19.5t-19.5 -50.5q0 -30 19.5 -49t49.5 -19t49.5 19zM393.5 -93q28.5 15 28.5 47
q0 29 -21 40.5t-60 11.5h-68q-34 0 -58 4q-11 -17 -11 -46q0 -35 31 -53.5t82 -18.5q48 0 76.5 15zM234.5 623q-32.5 32 -32.5 77h91q0 -12 7.5 -20t19.5 -8t19.5 8t7.5 20h91q0 -45 -32.5 -77t-85.5 -32t-85.5 32z" />
    <glyph glyph-name="gcircumflex" unicode="&#x11d;" 
d="M152.5 -169q-63.5 43 -63.5 123q0 62 41 100q-26 31 -26 78q0 35 16.5 62t45.5 44q-35 43 -35 104q0 51 24.5 89.5t67 59.5t93.5 21q49 0 93 -22l95 50l49 -82l-72 -36q20 -35 20 -80q0 -51 -24.5 -89.5t-67 -58.5t-93.5 -20q-38 0 -73 11q-24 -14 -24 -38
q0 -18 12 -27.5t35 -9.5h103q81 0 129 -38.5t48 -109.5q0 -59 -32.5 -98t-84.5 -57.5t-112 -18.5q-101 0 -164.5 43zM365.5 293q19.5 19 19.5 49q0 31 -19.5 50.5t-49.5 19.5t-49.5 -19.5t-19.5 -50.5q0 -30 19.5 -49t49.5 -19t49.5 19zM393.5 -93q28.5 15 28.5 47
q0 29 -21 40.5t-60 11.5h-68q-34 0 -58 4q-11 -17 -11 -46q0 -35 31 -53.5t82 -18.5q48 0 76.5 15zM303 734h34l171 -174h-122l-66 69l-66 -69h-122z" />
    <glyph glyph-name="gcommaaccent" unicode="&#x123;" 
d="M152.5 -169q-63.5 43 -63.5 123q0 62 41 100q-26 31 -26 78q0 35 16.5 62t45.5 44q-35 43 -35 104q0 51 24.5 89.5t67 59.5t93.5 21q49 0 93 -22l95 50l49 -82l-72 -36q20 -35 20 -80q0 -51 -24.5 -89.5t-67 -58.5t-93.5 -20q-38 0 -73 11q-24 -14 -24 -38
q0 -18 12 -27.5t35 -9.5h103q81 0 129 -38.5t48 -109.5q0 -59 -32.5 -98t-84.5 -57.5t-112 -18.5q-101 0 -164.5 43zM365.5 293q19.5 19 19.5 49q0 31 -19.5 50.5t-49.5 19.5t-49.5 -19.5t-19.5 -50.5q0 -30 19.5 -49t49.5 -19t49.5 19zM393.5 -93q28.5 15 28.5 47
q0 29 -21 40.5t-60 11.5h-68q-34 0 -58 4q-11 -17 -11 -46q0 -35 31 -53.5t82 -18.5q48 0 76.5 15zM351 754h80l-43 -168h-136z" />
    <glyph glyph-name="gdotaccent" unicode="&#x121;" 
d="M152.5 -169q-63.5 43 -63.5 123q0 62 41 100q-26 31 -26 78q0 35 16.5 62t45.5 44q-35 43 -35 104q0 51 24.5 89.5t67 59.5t93.5 21q49 0 93 -22l95 50l49 -82l-72 -36q20 -35 20 -80q0 -51 -24.5 -89.5t-67 -58.5t-93.5 -20q-38 0 -73 11q-24 -14 -24 -38
q0 -18 12 -27.5t35 -9.5h103q81 0 129 -38.5t48 -109.5q0 -59 -32.5 -98t-84.5 -57.5t-112 -18.5q-101 0 -164.5 43zM365.5 293q19.5 19 19.5 49q0 31 -19.5 50.5t-49.5 19.5t-49.5 -19.5t-19.5 -50.5q0 -30 19.5 -49t49.5 -19t49.5 19zM393.5 -93q28.5 15 28.5 47
q0 29 -21 40.5t-60 11.5h-68q-34 0 -58 4q-11 -17 -11 -46q0 -35 31 -53.5t82 -18.5q48 0 76.5 15zM263 592q-23 23 -23 57t23 57t57 23t57 -23t23 -57t-23 -57t-57 -23t-57 23z" />
    <glyph glyph-name="h" unicode="h" 
d="M87 708h124v-285q25 40 66.5 64.5t93.5 24.5q73 0 115 -38.5t42 -113.5v-360h-124v316q0 46 -18.5 68t-56.5 22q-30 0 -57 -21t-44 -64t-17 -108v-213h-124v708z" />
    <glyph glyph-name="hbar" unicode="&#x127;" 
d="M87 559h-72v92h72v57h124v-57h111v-92h-111v-136q25 40 66.5 64.5t93.5 24.5q73 0 115 -38.5t42 -113.5v-360h-124v316q0 46 -18.5 68t-56.5 22q-30 0 -57 -21t-44 -64t-17 -108v-213h-124v559z" />
    <glyph glyph-name="hcircumflex" unicode="&#x125;" 
d="M87 708h124v-285q25 40 66.5 64.5t93.5 24.5q73 0 115 -38.5t42 -113.5v-360h-124v316q0 46 -18.5 68t-56.5 22q-30 0 -57 -21t-44 -64t-17 -108v-213h-124v708zM254 938h34l171 -174h-122l-66 69l-66 -69h-122z" />
    <glyph glyph-name="i" unicode="i" 
d="M247 592q-23 23 -23 57t23 57t57 23t57 -23t23 -57t-23 -57t-57 -23t-57 23zM92 106h156v292h-131v106h255v-398h156v-106h-436v106z" />
    <glyph glyph-name="dotlessi" unicode="&#x131;" 
d="M92 106h156v292h-131v106h255v-398h156v-106h-436v106z" />
    <glyph glyph-name="iacute" unicode="&#xed;" 
d="M92 106h156v292h-131v106h255v-398h156v-106h-436v106zM321 708h168l-137 -148h-95z" />
    <glyph glyph-name="ibreve" unicode="&#x12d;" 
d="M92 106h156v292h-131v106h255v-398h156v-106h-436v106zM218.5 623q-32.5 32 -32.5 77h91q0 -12 7.5 -20t19.5 -8t19.5 8t7.5 20h91q0 -45 -32.5 -77t-85.5 -32t-85.5 32z" />
    <glyph glyph-name="icircumflex" unicode="&#xee;" 
d="M92 106h156v292h-131v106h255v-398h156v-106h-436v106zM287 734h34l171 -174h-122l-66 69l-66 -69h-122z" />
    <glyph glyph-name="idieresis" unicode="&#xef;" 
d="M92 106h156v292h-131v106h255v-398h156v-106h-436v106zM150 596q-20 20 -20 51t20 51t51 20t51 -20t20 -51t-20 -51t-51 -20t-51 20zM356 596q-20 20 -20 51t20 51t51 20t51 -20t20 -51t-20 -51t-51 -20t-51 20z" />
    <glyph glyph-name="i.loclTRK" 
d="M92 106h156v292h-131v106h255v-398h156v-106h-436v106zM247 592q-23 23 -23 57t23 57t57 23t57 -23t23 -57t-23 -57t-57 -23t-57 23z" />
    <glyph glyph-name="igrave" unicode="&#xec;" 
d="M92 106h156v292h-131v106h255v-398h156v-106h-436v106zM133 708h168l64 -148h-95z" />
    <glyph glyph-name="ij" unicode="&#x133;" 
d="M95 592q-23 23 -23 57t23 57t57 23t57 -23t23 -57t-23 -57t-57 -23t-57 23zM426 592q-23 23 -23 57t23 57t57 23t57 -23t23 -57t-23 -57t-57 -23t-57 23zM91 504h124v-504h-124v504zM310 -103q59 15 88 48.5t29 104.5v348h-128v106h252v-476q0 -100 -63 -159.5
t-148 -80.5z" />
    <glyph glyph-name="imacron" unicode="&#x12b;" 
d="M92 106h156v292h-131v106h255v-398h156v-106h-436v106zM169 692h268v-98h-268v98z" />
    <glyph glyph-name="iogonek" unicode="&#x12f;" 
d="M92 106h156v292h-131v106h255v-398h156v-106h-436v106zM247 592q-23 23 -23 57t23 57t57 23t57 -23t23 -57t-23 -57t-57 -23t-57 23zM412.5 -161q-26.5 24 -26.5 66q0 28 16 53.5t41 41.5h86q-58 -47 -58 -78q0 -12 6.5 -19t19.5 -7q14 0 31 10l20 -76q-28 -15 -65 -15
q-44 0 -70.5 24z" />
    <glyph glyph-name="itilde" unicode="&#x129;" 
d="M92 106h156v292h-131v106h255v-398h156v-106h-436v106zM331 577q-17 6 -37 17q-18 9 -29 13.5t-26 4.5q-35 0 -64 -40l-65 52q17 39 51 63t72 24q24 0 41 -6t37 -17q18 -9 29 -13.5t26 -4.5q33 0 64 43l65 -55q-17 -39 -51 -63t-72 -24q-24 0 -41 6z" />
    <glyph glyph-name="j" unicode="j" 
d="M290 592q-23 23 -23 57t23 57t57 23t57 -23t23 -57t-23 -57t-57 -23t-57 23zM174 -103q59 15 88 48.5t29 104.5v348h-178v106h302v-476q0 -100 -63 -159.5t-148 -80.5z" />
    <glyph glyph-name="uni0237" unicode="&#x237;" 
d="M174 -103q59 15 88 48.5t29 104.5v348h-178v106h302v-476q0 -100 -63 -159.5t-148 -80.5z" />
    <glyph glyph-name="jcircumflex" unicode="&#x135;" 
d="M174 -103q59 15 88 48.5t29 104.5v348h-178v106h302v-476q0 -100 -63 -159.5t-148 -80.5zM337 734h34l171 -174h-122l-66 69l-66 -69h-122z" />
    <glyph glyph-name="k" unicode="k" 
d="M79 708h124v-391l165 187h150l-215 -231l238 -273h-150l-188 229v-229h-124v708z" />
    <glyph glyph-name="kcommaaccent" unicode="&#x137;" 
d="M79 708h124v-391l165 187h150l-215 -231l238 -273h-150l-188 229v-229h-124v708zM222 -52h152l-130 -184h-66z" />
    <glyph glyph-name="kgreenlandic" unicode="&#x138;" 
d="M79 504h124v-187l165 187h150l-215 -231l238 -273h-150l-188 229v-229h-124v504z" />
    <glyph glyph-name="l" unicode="l" 
d="M233.5 44.5q-55.5 52.5 -55.5 145.5v404h-129v106h253v-483q0 -59 21 -82t55 -23q68 0 84 85l109 -22q-13 -90 -63.5 -136.5t-129.5 -46.5q-89 0 -144.5 52.5z" />
    <glyph glyph-name="lacute" unicode="&#x13a;" 
d="M233.5 44.5q-55.5 52.5 -55.5 145.5v404h-129v106h253v-483q0 -59 21 -82t55 -23q68 0 84 85l109 -22q-13 -90 -63.5 -136.5t-129.5 -46.5q-89 0 -144.5 52.5zM261 904h168l-137 -148h-95z" />
    <glyph glyph-name="lcaron" unicode="&#x13e;" 
d="M233.5 44.5q-55.5 52.5 -55.5 145.5v404h-129v106h253v-483q0 -59 21 -82t55 -23q68 0 84 85l109 -22q-13 -90 -63.5 -136.5t-129.5 -46.5q-89 0 -144.5 52.5zM437 726h136l-82 -184h-79z" />
    <glyph glyph-name="lcommaaccent" unicode="&#x13c;" 
d="M233.5 44.5q-55.5 52.5 -55.5 145.5v404h-129v106h253v-483q0 -59 21 -82t55 -23q68 0 84 85l109 -22q-13 -90 -63.5 -136.5t-129.5 -46.5q-89 0 -144.5 52.5zM293 -52h152l-130 -184h-66z" />
    <glyph glyph-name="ldot" unicode="&#x140;" 
d="M233.5 44.5q-55.5 52.5 -55.5 145.5v404h-129v106h253v-483q0 -59 21 -82t55 -23q68 0 84 85l109 -22q-13 -90 -63.5 -136.5t-129.5 -46.5q-89 0 -144.5 52.5zM429.5 286.5q-25.5 25.5 -25.5 63.5t25.5 63.5t63.5 25.5t63.5 -25.5t25.5 -63.5t-25.5 -63.5t-63.5 -25.5
t-63.5 25.5z" />
    <glyph glyph-name="lslash" unicode="&#x142;" 
d="M233.5 44.5q-55.5 52.5 -55.5 145.5v42l-58 -31l-53 95l111 60v238h-129v106h253v-277l65 36l54 -95l-119 -64v-79q0 -59 21 -84t55 -25q68 0 84 85l109 -22q-13 -90 -63.5 -136.5t-129.5 -46.5q-89 0 -144.5 52.5z" />
    <glyph glyph-name="m" unicode="m" 
d="M33 504h107v-64q16 33 44 52.5t66 19.5q81 0 104 -82q15 37 46 59.5t70 22.5q50 0 83 -34t33 -102v-376h-107v343q0 31 -9.5 44.5t-31.5 13.5q-34 0 -53.5 -48.5t-19.5 -149.5v-203h-107v344q0 57 -43 57q-33 0 -54 -49t-21 -149v-203h-107v504z" />
    <glyph glyph-name="n" unicode="n" 
d="M88 504h124v-81q28 40 73 64.5t93 24.5q70 0 112.5 -39t42.5 -113v-360h-124v323q0 42 -20.5 62t-51.5 20q-35 0 -63.5 -24.5t-45 -71t-16.5 -108.5v-201h-124v504z" />
    <glyph glyph-name="nacute" unicode="&#x144;" 
d="M88 504h124v-81q28 40 73 64.5t93 24.5q70 0 112.5 -39t42.5 -113v-360h-124v323q0 42 -20.5 62t-51.5 20q-35 0 -63.5 -24.5t-45 -71t-16.5 -108.5v-201h-124v504zM353 708h168l-137 -148h-95z" />
    <glyph glyph-name="ncaron" unicode="&#x148;" 
d="M88 504h124v-81q28 40 73 64.5t93 24.5q70 0 112.5 -39t42.5 -113v-360h-124v323q0 42 -20.5 62t-51.5 20q-35 0 -63.5 -24.5t-45 -71t-16.5 -108.5v-201h-124v504zM148 734h122l66 -69l66 69h122l-171 -174h-34z" />
    <glyph glyph-name="ncommaaccent" unicode="&#x146;" 
d="M88 504h124v-81q28 40 73 64.5t93 24.5q70 0 112.5 -39t42.5 -113v-360h-124v323q0 42 -20.5 62t-51.5 20q-35 0 -63.5 -24.5t-45 -71t-16.5 -108.5v-201h-124v504zM234 -52h152l-130 -184h-66z" />
    <glyph glyph-name="eng" unicode="&#x14b;" 
d="M292 -103q59 15 88 47t29 99v280q0 42 -20.5 62t-51.5 20q-35 0 -63.5 -24.5t-45 -71t-16.5 -108.5v-201h-124v504h124v-81q28 40 73 64.5t93 24.5q70 0 112.5 -39t42.5 -113v-302q0 -118 -51.5 -181.5t-159.5 -88.5z" />
    <glyph glyph-name="ntilde" unicode="&#xf1;" 
d="M88 504h124v-81q28 40 73 64.5t93 24.5q70 0 112.5 -39t42.5 -113v-360h-124v323q0 42 -20.5 62t-51.5 20q-35 0 -63.5 -24.5t-45 -71t-16.5 -108.5v-201h-124v504zM363 577q-17 6 -37 17q-18 9 -29 13.5t-26 4.5q-35 0 -64 -40l-65 52q17 39 51 63t72 24q24 0 41 -6
t37 -17q18 -9 29 -13.5t26 -4.5q33 0 64 43l65 -55q-17 -39 -51 -63t-72 -24q-24 0 -41 6z" />
    <glyph glyph-name="o" unicode="o" 
d="M179 27q-56 35 -86.5 94.5t-30.5 130.5t30.5 130.5t86.5 94.5t131 35t131 -35t86.5 -94.5t30.5 -130.5t-30.5 -130.5t-86.5 -94.5t-131 -35t-131 35zM404.5 143q33.5 45 33.5 109t-33.5 109t-94.5 45t-94.5 -45t-33.5 -109t33.5 -109t94.5 -45t94.5 45z" />
    <glyph glyph-name="oacute" unicode="&#xf3;" 
d="M179 27q-56 35 -86.5 94.5t-30.5 130.5t30.5 130.5t86.5 94.5t131 35t131 -35t86.5 -94.5t30.5 -130.5t-30.5 -130.5t-86.5 -94.5t-131 -35t-131 35zM404.5 143q33.5 45 33.5 109t-33.5 109t-94.5 45t-94.5 -45t-33.5 -109t33.5 -109t94.5 -45t94.5 45zM327 708h168
l-137 -148h-95z" />
    <glyph glyph-name="obreve" unicode="&#x14f;" 
d="M179 27q-56 35 -86.5 94.5t-30.5 130.5t30.5 130.5t86.5 94.5t131 35t131 -35t86.5 -94.5t30.5 -130.5t-30.5 -130.5t-86.5 -94.5t-131 -35t-131 35zM404.5 143q33.5 45 33.5 109t-33.5 109t-94.5 45t-94.5 -45t-33.5 -109t33.5 -109t94.5 -45t94.5 45zM224.5 623
q-32.5 32 -32.5 77h91q0 -12 7.5 -20t19.5 -8t19.5 8t7.5 20h91q0 -45 -32.5 -77t-85.5 -32t-85.5 32z" />
    <glyph glyph-name="ocircumflex" unicode="&#xf4;" 
d="M179 27q-56 35 -86.5 94.5t-30.5 130.5t30.5 130.5t86.5 94.5t131 35t131 -35t86.5 -94.5t30.5 -130.5t-30.5 -130.5t-86.5 -94.5t-131 -35t-131 35zM404.5 143q33.5 45 33.5 109t-33.5 109t-94.5 45t-94.5 -45t-33.5 -109t33.5 -109t94.5 -45t94.5 45zM293 734h34
l171 -174h-122l-66 69l-66 -69h-122z" />
    <glyph glyph-name="odieresis" unicode="&#xf6;" 
d="M179 27q-56 35 -86.5 94.5t-30.5 130.5t30.5 130.5t86.5 94.5t131 35t131 -35t86.5 -94.5t30.5 -130.5t-30.5 -130.5t-86.5 -94.5t-131 -35t-131 35zM404.5 143q33.5 45 33.5 109t-33.5 109t-94.5 45t-94.5 -45t-33.5 -109t33.5 -109t94.5 -45t94.5 45zM156 596
q-20 20 -20 51t20 51t51 20t51 -20t20 -51t-20 -51t-51 -20t-51 20zM362 596q-20 20 -20 51t20 51t51 20t51 -20t20 -51t-20 -51t-51 -20t-51 20z" />
    <glyph glyph-name="ograve" unicode="&#xf2;" 
d="M179 27q-56 35 -86.5 94.5t-30.5 130.5t30.5 130.5t86.5 94.5t131 35t131 -35t86.5 -94.5t30.5 -130.5t-30.5 -130.5t-86.5 -94.5t-131 -35t-131 35zM404.5 143q33.5 45 33.5 109t-33.5 109t-94.5 45t-94.5 -45t-33.5 -109t33.5 -109t94.5 -45t94.5 45zM139 708h168
l64 -148h-95z" />
    <glyph glyph-name="ohungarumlaut" unicode="&#x151;" 
d="M179 27q-56 35 -86.5 94.5t-30.5 130.5t30.5 130.5t86.5 94.5t131 35t131 -35t86.5 -94.5t30.5 -130.5t-30.5 -130.5t-86.5 -94.5t-131 -35t-131 35zM404.5 143q33.5 45 33.5 109t-33.5 109t-94.5 45t-94.5 -45t-33.5 -109t33.5 -109t94.5 -45t94.5 45zM196 708h168
l-138 -148h-94zM399 708h168l-138 -148h-94z" />
    <glyph glyph-name="omacron" unicode="&#x14d;" 
d="M179 27q-56 35 -86.5 94.5t-30.5 130.5t30.5 130.5t86.5 94.5t131 35t131 -35t86.5 -94.5t30.5 -130.5t-30.5 -130.5t-86.5 -94.5t-131 -35t-131 35zM404.5 143q33.5 45 33.5 109t-33.5 109t-94.5 45t-94.5 -45t-33.5 -109t33.5 -109t94.5 -45t94.5 45zM175 692h268v-98
h-268v98z" />
    <glyph glyph-name="oslash" unicode="&#xf8;" 
d="M179 27q-56 35 -86.5 94.5t-30.5 130.5t30.5 130.5t86.5 94.5t131 35t131 -35t86.5 -94.5t30.5 -130.5t-30.5 -130.5t-86.5 -94.5t-131 -35t-131 35zM404.5 143q33.5 45 33.5 109t-33.5 109t-94.5 45t-94.5 -45t-33.5 -109t33.5 -109t94.5 -45t94.5 45zM47 3l440 561
l86 -63l-440 -561z" />
    <glyph glyph-name="otilde" unicode="&#xf5;" 
d="M179 27q-56 35 -86.5 94.5t-30.5 130.5t30.5 130.5t86.5 94.5t131 35t131 -35t86.5 -94.5t30.5 -130.5t-30.5 -130.5t-86.5 -94.5t-131 -35t-131 35zM404.5 143q33.5 45 33.5 109t-33.5 109t-94.5 45t-94.5 -45t-33.5 -109t33.5 -109t94.5 -45t94.5 45zM337 577
q-17 6 -37 17q-18 9 -29 13.5t-26 4.5q-35 0 -64 -40l-65 52q17 39 51 63t72 24q24 0 41 -6t37 -17q18 -9 29 -13.5t26 -4.5q33 0 64 43l65 -55q-17 -39 -51 -63t-72 -24q-24 0 -41 6z" />
    <glyph glyph-name="oe" unicode="&#x153;" 
d="M181.5 30.5q-54.5 38.5 -80 98t-25.5 123.5t25.5 123.5t80 98t136.5 38.5q79 0 132 -37.5t78 -94.5t25 -117v-51h-187v-109q48 15 81 73l100 -37q-31 -71 -86.5 -109t-142.5 -38q-82 0 -136.5 38.5zM273 397q-30 -14 -50.5 -51t-20.5 -94q0 -112 71 -143v288zM426 310
q-14 65 -60 86v-86h60z" />
    <glyph glyph-name="p" unicode="p" 
d="M96 504h124v-52q12 22 45.5 41t76.5 19q111 0 170.5 -70.5t59.5 -189.5t-59.5 -189.5t-170.5 -70.5q-37 0 -71 16t-51 38v-250h-124v708zM409 139q33 41 33 113q0 73 -33 113.5t-84 40.5t-83.5 -40.5t-32.5 -113.5t32.5 -113.5t83.5 -40.5t84 41z" />
    <glyph glyph-name="thorn" unicode="&#xfe;" 
d="M83 708h124v-250q17 22 51 38t71 16q111 0 170.5 -70.5t59.5 -189.5t-59.5 -189.5t-170.5 -70.5q-43 0 -76.5 19t-45.5 41v-256h-124v912zM396 139q33 41 33 113q0 73 -33 113.5t-84 40.5t-83.5 -40.5t-32.5 -113.5t32.5 -113.5t83.5 -40.5t84 41z" />
    <glyph glyph-name="q" unicode="q" 
d="M400 46q-17 -22 -51 -38t-71 -16q-111 0 -170.5 70.5t-59.5 189.5t59.5 189.5t170.5 70.5q43 0 76.5 -19t45.5 -41v52h124v-708h-124v250zM378.5 138.5q32.5 40.5 32.5 113.5t-32.5 113.5t-83.5 40.5t-84 -40.5t-33 -113.5q0 -72 33 -113t84 -41t83.5 40.5z" />
    <glyph glyph-name="r" unicode="r" 
d="M82 504h124v-77q33 47 81 66t93 19q69 0 111.5 -45t46.5 -128h-122q-4 72 -64 72q-40 0 -73.5 -32.5t-53 -91t-19.5 -133.5v-154h-124v504z" />
    <glyph glyph-name="racute" unicode="&#x155;" 
d="M82 504h124v-77q33 47 81 66t93 19q69 0 111.5 -45t46.5 -128h-122q-4 72 -64 72q-40 0 -73.5 -32.5t-53 -91t-19.5 -133.5v-154h-124v504zM365 708h168l-137 -148h-95z" />
    <glyph glyph-name="rcaron" unicode="&#x159;" 
d="M82 504h124v-77q33 47 81 66t93 19q69 0 111.5 -45t46.5 -128h-122q-4 72 -64 72q-40 0 -73.5 -32.5t-53 -91t-19.5 -133.5v-154h-124v504zM160 734h122l66 -69l66 69h122l-171 -174h-34z" />
    <glyph glyph-name="rcommaaccent" unicode="&#x157;" 
d="M82 504h124v-77q33 47 81 66t93 19q69 0 111.5 -45t46.5 -128h-122q-4 72 -64 72q-40 0 -73.5 -32.5t-53 -91t-19.5 -133.5v-154h-124v504zM68 -52h152l-130 -184h-66z" />
    <glyph glyph-name="s" unicode="s" 
d="M98 143l112 39q14 -44 41 -64t73 -20q36 0 59.5 13.5t23.5 34.5q0 20 -23 32.5t-83 25.5q-170 37 -170 162q0 43 25 76.5t66.5 51.5t87.5 18q135 0 197 -113l-89 -62q-36 69 -107 69q-26 0 -45.5 -12t-19.5 -31q0 -20 19 -33t72 -24q94 -18 139.5 -52.5t45.5 -99.5
q0 -75 -57.5 -118.5t-144.5 -43.5q-170 0 -222 151z" />
    <glyph glyph-name="sacute" unicode="&#x15b;" 
d="M98 143l112 39q14 -44 41 -64t73 -20q36 0 59.5 13.5t23.5 34.5q0 20 -23 32.5t-83 25.5q-170 37 -170 162q0 43 25 76.5t66.5 51.5t87.5 18q135 0 197 -113l-89 -62q-36 69 -107 69q-26 0 -45.5 -12t-19.5 -31q0 -20 19 -33t72 -24q94 -18 139.5 -52.5t45.5 -99.5
q0 -75 -57.5 -118.5t-144.5 -43.5q-170 0 -222 151zM329 708h168l-137 -148h-95z" />
    <glyph glyph-name="scaron" unicode="&#x161;" 
d="M98 143l112 39q14 -44 41 -64t73 -20q36 0 59.5 13.5t23.5 34.5q0 20 -23 32.5t-83 25.5q-170 37 -170 162q0 43 25 76.5t66.5 51.5t87.5 18q135 0 197 -113l-89 -62q-36 69 -107 69q-26 0 -45.5 -12t-19.5 -31q0 -20 19 -33t72 -24q94 -18 139.5 -52.5t45.5 -99.5
q0 -75 -57.5 -118.5t-144.5 -43.5q-170 0 -222 151zM124 734h122l66 -69l66 69h122l-171 -174h-34z" />
    <glyph glyph-name="scedilla" unicode="&#x15f;" 
d="M98 143l112 39q14 -44 41 -64t73 -20q36 0 59.5 13.5t23.5 34.5q0 20 -23 32.5t-83 25.5q-170 37 -170 162q0 43 25 76.5t66.5 51.5t87.5 18q135 0 197 -113l-89 -62q-36 69 -107 69q-26 0 -45.5 -12t-19.5 -31q0 -20 19 -33t72 -24q94 -18 139.5 -52.5t45.5 -99.5
q0 -75 -57.5 -118.5t-144.5 -43.5q-170 0 -222 151zM123 -200l141 140h90l-83 -206z" />
    <glyph glyph-name="scircumflex" unicode="&#x15d;" 
d="M98 143l112 39q14 -44 41 -64t73 -20q36 0 59.5 13.5t23.5 34.5q0 20 -23 32.5t-83 25.5q-170 37 -170 162q0 43 25 76.5t66.5 51.5t87.5 18q135 0 197 -113l-89 -62q-36 69 -107 69q-26 0 -45.5 -12t-19.5 -31q0 -20 19 -33t72 -24q94 -18 139.5 -52.5t45.5 -99.5
q0 -75 -57.5 -118.5t-144.5 -43.5q-170 0 -222 151zM295 734h34l171 -174h-122l-66 69l-66 -69h-122z" />
    <glyph glyph-name="scommaaccent" unicode="&#x219;" 
d="M98 143l112 39q14 -44 41 -64t73 -20q36 0 59.5 13.5t23.5 34.5q0 20 -23 32.5t-83 25.5q-170 37 -170 162q0 43 25 76.5t66.5 51.5t87.5 18q135 0 197 -113l-89 -62q-36 69 -107 69q-26 0 -45.5 -12t-19.5 -31q0 -20 19 -33t72 -24q94 -18 139.5 -52.5t45.5 -99.5
q0 -75 -57.5 -118.5t-144.5 -43.5q-170 0 -222 151zM236 -52h152l-130 -184h-66z" />
    <glyph glyph-name="germandbls" unicode="&#xdf;" 
d="M297 -5.5q-19 2.5 -31 5.5v108q40 -8 63 -8q56 0 80.5 29t24.5 83q0 60 -31 87t-89 27h-33v112h20q40 0 62 20.5t22 61.5q0 39 -20.5 60.5t-56.5 21.5q-37 0 -59 -25.5t-22 -73.5v-503h-120v326h-52v112h52v62q0 100 55 154t146 54t140.5 -48t49.5 -129q0 -48 -23 -83
t-57 -47q59 -16 97.5 -62.5t38.5 -119.5q0 -117 -56 -172t-167 -55q-15 0 -34 2.5z" />
    <glyph glyph-name="t" unicode="t" 
d="M234 45q-53 53 -53 158v195h-124v106h124v126l124 78v-204h219v-106h-219v-198q0 -51 21.5 -76.5t61.5 -25.5q54 0 103 59l42 -100q-34 -34 -69.5 -49.5t-75.5 -15.5q-101 0 -154 53z" />
    <glyph glyph-name="tbar" unicode="&#x167;" 
d="M234 45q-53 53 -53 158v41h-57v94h57v60h-124v106h124v126l124 78v-204h219v-106h-219v-60h92v-94h-92v-44q0 -51 21.5 -76.5t61.5 -25.5q54 0 103 59l42 -100q-34 -34 -69.5 -49.5t-75.5 -15.5q-101 0 -154 53z" />
    <glyph glyph-name="tcaron" unicode="&#x165;" 
d="M234 45q-53 53 -53 158v195h-124v106h124v126l124 78v-204h219v-106h-219v-198q0 -51 21.5 -76.5t61.5 -25.5q54 0 103 59l42 -100q-34 -34 -69.5 -49.5t-75.5 -15.5q-101 0 -154 53zM467 726h136l-82 -184h-79z" />
    <glyph glyph-name="uni0163" unicode="&#x163;" 
d="M234 45q-53 53 -53 158v195h-124v106h124v126l124 78v-204h219v-106h-219v-198q0 -51 21.5 -76.5t61.5 -25.5q54 0 103 59l42 -100q-34 -34 -69.5 -49.5t-75.5 -15.5q-101 0 -154 53zM162 -200l141 140h90l-83 -206z" />
    <glyph glyph-name="uni021B" unicode="&#x21b;" 
d="M234 45q-53 53 -53 158v195h-124v106h124v126l124 78v-204h219v-106h-219v-198q0 -51 21.5 -76.5t61.5 -25.5q54 0 103 59l42 -100q-34 -34 -69.5 -49.5t-75.5 -15.5q-101 0 -154 53zM275 -52h152l-130 -184h-66z" />
    <glyph glyph-name="u" unicode="u" 
d="M130.5 31q-42.5 39 -42.5 113v360h124v-323q0 -42 20.5 -62t51.5 -20q35 0 63.5 24.5t45 71t16.5 108.5v201h124v-504h-124v81q-28 -40 -73 -64.5t-93 -24.5q-70 0 -112.5 39z" />
    <glyph glyph-name="uacute" unicode="&#xfa;" 
d="M130.5 31q-42.5 39 -42.5 113v360h124v-323q0 -42 20.5 -62t51.5 -20q35 0 63.5 24.5t45 71t16.5 108.5v201h124v-504h-124v81q-28 -40 -73 -64.5t-93 -24.5q-70 0 -112.5 39zM323 708h168l-137 -148h-95z" />
    <glyph glyph-name="ubreve" unicode="&#x16d;" 
d="M130.5 31q-42.5 39 -42.5 113v360h124v-323q0 -42 20.5 -62t51.5 -20q35 0 63.5 24.5t45 71t16.5 108.5v201h124v-504h-124v81q-28 -40 -73 -64.5t-93 -24.5q-70 0 -112.5 39zM220.5 623q-32.5 32 -32.5 77h91q0 -12 7.5 -20t19.5 -8t19.5 8t7.5 20h91q0 -45 -32.5 -77
t-85.5 -32t-85.5 32z" />
    <glyph glyph-name="ucircumflex" unicode="&#xfb;" 
d="M130.5 31q-42.5 39 -42.5 113v360h124v-323q0 -42 20.5 -62t51.5 -20q35 0 63.5 24.5t45 71t16.5 108.5v201h124v-504h-124v81q-28 -40 -73 -64.5t-93 -24.5q-70 0 -112.5 39zM289 734h34l171 -174h-122l-66 69l-66 -69h-122z" />
    <glyph glyph-name="udieresis" unicode="&#xfc;" 
d="M130.5 31q-42.5 39 -42.5 113v360h124v-323q0 -42 20.5 -62t51.5 -20q35 0 63.5 24.5t45 71t16.5 108.5v201h124v-504h-124v81q-28 -40 -73 -64.5t-93 -24.5q-70 0 -112.5 39zM152 596q-20 20 -20 51t20 51t51 20t51 -20t20 -51t-20 -51t-51 -20t-51 20zM358 596
q-20 20 -20 51t20 51t51 20t51 -20t20 -51t-20 -51t-51 -20t-51 20z" />
    <glyph glyph-name="ugrave" unicode="&#xf9;" 
d="M130.5 31q-42.5 39 -42.5 113v360h124v-323q0 -42 20.5 -62t51.5 -20q35 0 63.5 24.5t45 71t16.5 108.5v201h124v-504h-124v81q-28 -40 -73 -64.5t-93 -24.5q-70 0 -112.5 39zM135 708h168l64 -148h-95z" />
    <glyph glyph-name="uhungarumlaut" unicode="&#x171;" 
d="M130.5 31q-42.5 39 -42.5 113v360h124v-323q0 -42 20.5 -62t51.5 -20q35 0 63.5 24.5t45 71t16.5 108.5v201h124v-504h-124v81q-28 -40 -73 -64.5t-93 -24.5q-70 0 -112.5 39zM192 708h168l-138 -148h-94zM395 708h168l-138 -148h-94z" />
    <glyph glyph-name="umacron" unicode="&#x16b;" 
d="M130.5 31q-42.5 39 -42.5 113v360h124v-323q0 -42 20.5 -62t51.5 -20q35 0 63.5 24.5t45 71t16.5 108.5v201h124v-504h-124v81q-28 -40 -73 -64.5t-93 -24.5q-70 0 -112.5 39zM171 692h268v-98h-268v98z" />
    <glyph glyph-name="uogonek" unicode="&#x173;" 
d="M130.5 31q-42.5 39 -42.5 113v360h124v-323q0 -42 20.5 -62t51.5 -20q35 0 63.5 24.5t45 71t16.5 108.5v201h124v-504h-124v81q-28 -40 -73 -64.5t-93 -24.5q-70 0 -112.5 39zM416.5 -161q-26.5 24 -26.5 66q0 28 16 53.5t41 41.5h86q-58 -47 -58 -78q0 -12 6.5 -19
t19.5 -7q14 0 31 10l20 -76q-28 -15 -65 -15q-44 0 -70.5 24z" />
    <glyph glyph-name="uring" unicode="&#x16f;" 
d="M130.5 31q-42.5 39 -42.5 113v360h124v-323q0 -42 20.5 -62t51.5 -20q35 0 63.5 24.5t45 71t16.5 108.5v201h124v-504h-124v81q-28 -40 -73 -64.5t-93 -24.5q-70 0 -112.5 39zM232 582q-29 29 -29 73t29 73t74 29t74 -29t29 -73t-29 -73t-74 -29t-74 29zM328 632
q8 9 8 23t-8 23t-22 9t-22 -9t-8 -23t8 -23t22 -9t22 9z" />
    <glyph glyph-name="utilde" unicode="&#x169;" 
d="M130.5 31q-42.5 39 -42.5 113v360h124v-323q0 -42 20.5 -62t51.5 -20q35 0 63.5 24.5t45 71t16.5 108.5v201h124v-504h-124v81q-28 -40 -73 -64.5t-93 -24.5q-70 0 -112.5 39zM333 577q-17 6 -37 17q-18 9 -29 13.5t-26 4.5q-35 0 -64 -40l-65 52q17 39 51 63t72 24
q24 0 41 -6t37 -17q18 -9 29 -13.5t26 -4.5q33 0 64 43l65 -55q-17 -39 -51 -63t-72 -24q-24 0 -41 6z" />
    <glyph glyph-name="v" unicode="v" 
d="M57 504h125l128 -329l128 329h125l-211 -504h-84z" />
    <glyph glyph-name="w" unicode="w" 
d="M27 504h110l45 -312l86 282h84l86 -282l45 312h110l-100 -504h-96l-87 294l-87 -294h-96z" />
    <glyph glyph-name="wacute" unicode="&#x1e83;" 
d="M27 504h110l45 -312l86 282h84l86 -282l45 312h110l-100 -504h-96l-87 294l-87 -294h-96zM327 708h168l-137 -148h-95z" />
    <glyph glyph-name="wcircumflex" unicode="&#x175;" 
d="M27 504h110l45 -312l86 282h84l86 -282l45 312h110l-100 -504h-96l-87 294l-87 -294h-96zM293 734h34l171 -174h-122l-66 69l-66 -69h-122z" />
    <glyph glyph-name="wdieresis" unicode="&#x1e85;" 
d="M27 504h110l45 -312l86 282h84l86 -282l45 312h110l-100 -504h-96l-87 294l-87 -294h-96zM156 596q-20 20 -20 51t20 51t51 20t51 -20t20 -51t-20 -51t-51 -20t-51 20zM362 596q-20 20 -20 51t20 51t51 20t51 -20t20 -51t-20 -51t-51 -20t-51 20z" />
    <glyph glyph-name="wgrave" unicode="&#x1e81;" 
d="M27 504h110l45 -312l86 282h84l86 -282l45 312h110l-100 -504h-96l-87 294l-87 -294h-96zM139 708h168l64 -148h-95z" />
    <glyph glyph-name="x" unicode="x" 
d="M244 269l-146 235h130l82 -131l82 131h130l-146 -235l167 -269h-130l-103 164l-103 -164h-130z" />
    <glyph glyph-name="y" unicode="y" 
d="M255 63l-200 441h130l130 -299l120 299h130l-299 -708h-124z" />
    <glyph glyph-name="yacute" unicode="&#xfd;" 
d="M255 63l-200 441h130l130 -299l120 299h130l-299 -708h-124zM333 708h168l-137 -148h-95z" />
    <glyph glyph-name="ycircumflex" unicode="&#x177;" 
d="M255 63l-200 441h130l130 -299l120 299h130l-299 -708h-124zM299 734h34l171 -174h-122l-66 69l-66 -69h-122z" />
    <glyph glyph-name="ydieresis" unicode="&#xff;" 
d="M255 63l-200 441h130l130 -299l120 299h130l-299 -708h-124zM162 596q-20 20 -20 51t20 51t51 20t51 -20t20 -51t-20 -51t-51 -20t-51 20zM368 596q-20 20 -20 51t20 51t51 20t51 -20t20 -51t-20 -51t-51 -20t-51 20z" />
    <glyph glyph-name="ygrave" unicode="&#x1ef3;" 
d="M255 63l-200 441h130l130 -299l120 299h130l-299 -708h-124zM145 708h168l64 -148h-95z" />
    <glyph glyph-name="z" unicode="z" 
d="M109 48l234 350h-221v106h378v-48l-228 -350h240v-106h-403v48z" />
    <glyph glyph-name="zacute" unicode="&#x17a;" 
d="M109 48l234 350h-221v106h378v-48l-228 -350h240v-106h-403v48zM326 708h168l-137 -148h-95z" />
    <glyph glyph-name="zcaron" unicode="&#x17e;" 
d="M109 48l234 350h-221v106h378v-48l-228 -350h240v-106h-403v48zM121 734h122l66 -69l66 69h122l-171 -174h-34z" />
    <glyph glyph-name="zdotaccent" unicode="&#x17c;" 
d="M109 48l234 350h-221v106h378v-48l-228 -350h240v-106h-403v48zM252 592q-23 23 -23 57t23 57t57 23t57 -23t23 -57t-23 -57t-57 -23t-57 23z" />
    <glyph glyph-name="uni01B6" unicode="&#x1b6;" 
d="M108 48l114 170h-77v92h138l59 88h-221v106h378v-48l-95 -146h72v-92h-132l-73 -112h240v-106h-403v48z" />
    <glyph glyph-name="f_i" 
d="M172 398h-105v106h105v31q0 86 54.5 129.5t133.5 43.5q56 0 98 -17.5t75 -58.5l-81 -77q-21 29 -41 38.5t-45 9.5q-30 0 -50 -17t-20 -49v-33h256v-504h-124v398h-132v-398h-124v398z" />
    <glyph glyph-name="f_l" 
d="M117 398h-64v106h64v26q0 89 46.5 133.5t127.5 44.5h277v-708h-124v602h-146q-57 0 -57 -63v-35h106v-106h-106v-398h-124v398z" />
    <glyph glyph-name="ordfeminine" unicode="&#xaa;" 
d="M180.5 328q-34.5 32 -34.5 88q0 59 47 94.5t122 35.5h66v17q0 31 -19.5 44.5t-49.5 13.5q-53 0 -69 -46l-82 19q9 49 50 79.5t101 30.5q166 0 166 -166v-238h-81l-9 52q-48 -56 -122 -56q-51 0 -85.5 32zM353 402q28 23 28 59v11h-66q-31 0 -49 -15t-18 -41
q0 -16 10.5 -26.5t30.5 -10.5q36 0 64 23z" />
    <glyph glyph-name="ordmasculine" unicode="&#xba;" 
d="M206 324q-44 28 -67.5 74.5t-23.5 101.5t23.5 101.5t67.5 74.5t103 28t103 -28t68 -74.5t24 -101.5t-24 -101.5t-68 -74.5t-103 -28t-103 28zM380 422q26 32 26 78t-26 77.5t-71 31.5t-71 -31.5t-26 -77.5t26 -78t71 -32t71 32z" />
    <glyph glyph-name="pi" unicode="&#x3c0;" 
d="M110 398h-88v106h576v-106h-88v-398h-124v398h-152v-398h-124v398z" />
    <glyph glyph-name="zero" unicode="0" 
d="M119 86.5q-67 94.5 -67 263.5t67 263.5t191 94.5t191 -94.5t67 -263.5t-67 -263.5t-191 -94.5t-191 94.5zM357 583q-21 9 -47 9q-134 0 -134 -242q0 -77 13 -129zM444 350q0 69 -10 116l-164 -352q18 -6 40 -6q134 0 134 242z" />
    <glyph glyph-name="one" unicode="1" 
d="M117 116h159v408l-134 -80v136l205 120h55v-584h159v-116h-444v116z" />
    <glyph glyph-name="two" unicode="2" 
d="M88 50l250 323q30 39 42 67.5t12 59.5q0 43 -22 67.5t-64 24.5q-38 0 -61.5 -24t-29.5 -68l-116 22q3 53 31 95t75 66.5t104 24.5q98 0 153.5 -56t55.5 -147q0 -87 -60 -166l-171 -223h246v-116h-445v50z" />
    <glyph glyph-name="three" unicode="3" 
d="M190 18q-51 26 -82 72t-37 104l121 16q25 -102 113 -102q49 0 80 32t31 85q0 59 -30.5 91t-79.5 32q-32 0 -61 -15l-50 70l132 181h-223v116h401v-44l-165 -223q18 2 28 2q80 0 127 -57.5t47 -150.5q0 -71 -31 -124.5t-84.5 -82t-121.5 -28.5q-64 0 -115 26z" />
    <glyph glyph-name="four" unicode="4" 
d="M358 130h-296v64l290 506h132v-454h74v-116h-74v-130h-126v130zM358 246v267l-143 -267h143z" />
    <glyph glyph-name="five" unicode="5" 
d="M211 15.5q-49 23.5 -79.5 67t-36.5 100.5l119 22q19 -97 105 -97q51 0 77.5 32t26.5 92q0 59 -28.5 90t-81.5 31q-34 0 -66 -17t-58 -46l-79 16l39 394h360v-116h-257l-16 -146q44 26 99 26q106 0 160 -62.5t54 -169.5q0 -70 -28.5 -124.5t-80.5 -85t-121 -30.5
q-59 0 -108 23.5z" />
    <glyph glyph-name="six" unicode="6" 
d="M191.5 21.5q-53.5 29.5 -84.5 82t-31 116.5q0 31 9.5 63.5t24.5 59.5l204 365h140l-152 -260h16q64 0 115.5 -29t81 -80.5t29.5 -118.5q0 -64 -30.5 -116t-84 -82t-119.5 -30q-65 0 -118.5 29.5zM387 139q31 31 31 81q0 52 -30.5 82t-77.5 30t-77.5 -30t-30.5 -82
q0 -50 31.5 -81t76.5 -31q46 0 77 31z" />
    <glyph glyph-name="seven" unicode="7" 
d="M391 584h-310v116h461v-52l-301 -648h-126z" />
    <glyph glyph-name="eight" unicode="8" 
d="M196 18.5q-52 26.5 -83 75.5t-31 115q0 58 24 100.5t68 67.5q-31 25 -48 61t-17 79q0 52 25.5 95.5t71.5 69.5t104 26t104 -26t71.5 -69.5t25.5 -95.5q0 -43 -17 -79t-49 -61q44 -25 68.5 -67.5t24.5 -100.5q0 -66 -31 -115t-83 -75.5t-114 -26.5t-114 26.5zM371 450.5
q23 24.5 23 64.5q0 39 -23 63t-61 24t-61 -24t-23 -63q0 -40 23 -64.5t61 -24.5t61 24.5zM383 135q29 27 29 74t-29 74t-73 27t-73 -27t-29 -74t29 -74t73 -27t73 27z" />
    <glyph glyph-name="nine" unicode="9" 
d="M318 252h-16q-64 0 -115.5 29t-81 80.5t-29.5 118.5q0 64 30.5 116t84 82t119.5 30q65 0 118.5 -29.5t84.5 -82t31 -116.5q0 -31 -9.5 -63.5t-24.5 -59.5l-204 -365h-140zM387.5 398q30.5 30 30.5 82q0 50 -31.5 81t-76.5 31q-46 0 -77 -31t-31 -81q0 -52 30.5 -82
t77.5 -30t77.5 30z" />
    <glyph glyph-name="uni00B9" unicode="&#xb9;" 
d="M191 383h86v195l-85 -38v95l137 65h37v-317h86v-83h-261v83z" />
    <glyph glyph-name="uni00B2" unicode="&#xb2;" 
d="M174 335l145 177q27 32 27 68q0 20 -10.5 30.5t-27.5 10.5q-41 0 -51 -53l-80 23q6 50 42.5 81.5t88.5 31.5q59 0 95 -33t36 -89q0 -50 -40 -99l-82 -100h128v-83h-271v35z" />
    <glyph glyph-name="uni00B3" unicode="&#xb3;" 
d="M211.5 332q-38.5 36 -41.5 90l80 10q5 -26 21 -39.5t37 -13.5q24 0 36.5 15t12.5 44q0 27 -13 40t-35 13q-11 0 -19 -2t-18 -8l-40 50l66 86h-110v83h237v-35l-89 -114q49 0 81.5 -34t32.5 -82q0 -64 -35.5 -101.5t-104.5 -37.5q-60 0 -98.5 36z" />
    <glyph glyph-name="fraction" unicode="&#x2044;" 
d="M53 171l464 408l57 -62l-464 -408z" />
    <glyph glyph-name="onehalf" unicode="&#xbd;" 
d="M14 434h80v162l-75 -34v84l118 54h31v-266h80v-68h-234v68zM103 122l383 484l53 -40l-383 -484zM353 33l125 139q12 14 18 27t6 30t-10 27t-26 10t-26.5 -11.5t-12.5 -32.5l-73 18q7 45 38 71.5t78 26.5q52 0 81 -26.5t29 -77.5q0 -30 -9 -54.5t-30 -47.5l-54 -60h98v-72
h-232v33z" />
    <glyph glyph-name="onequarter" unicode="&#xbc;" 
d="M14 434h80v162l-75 -34v84l118 54h31v-266h80v-68h-234v68zM123 122l383 484l53 -40l-383 -484zM458 61h-152v35l143 238h83v-201h50v-72h-50v-61h-74v61zM458 133v91l-52 -91h52z" />
    <glyph glyph-name="threequarters" unicode="&#xbe;" 
d="M79 390.5q-34 28.5 -38 78.5l75 16q2 -24 15 -37.5t35 -13.5q20 0 32.5 13t12.5 35t-12 35t-33 13q-18 0 -33 -12l-34 47l56 63h-96v72h214v-32l-76 -84q41 -2 66.5 -30t25.5 -75q0 -54 -33.5 -85.5t-89.5 -31.5q-53 0 -87 28.5zM123 122l383 484l53 -40l-383 -484z
M458 61h-152v35l143 238h83v-201h50v-72h-50v-61h-74v61zM458 133v91l-52 -91h52z" />
    <glyph glyph-name="asterisk" unicode="*" 
d="M159 404l67 91l-109 37l33 99l109 -36v113h102v-113l109 36l33 -99l-109 -37l67 -91l-85 -63l-66 93l-66 -93z" />
    <glyph glyph-name="backslash" unicode="\" 
d="M47 750h120l406 -800h-120z" />
    <glyph glyph-name="periodcentered" unicode="&#xb7;" 
d="M246.5 286.5q-25.5 25.5 -25.5 63.5t25.5 63.5t63.5 25.5t63.5 -25.5t25.5 -63.5t-25.5 -63.5t-63.5 -25.5t-63.5 25.5z" />
    <glyph glyph-name="bullet" unicode="&#x2022;" 
d="M226.5 246.5q-34.5 34.5 -34.5 83.5t34.5 83.5t83.5 34.5t83.5 -34.5t34.5 -83.5t-34.5 -83.5t-83.5 -34.5t-83.5 34.5z" />
    <glyph glyph-name="colon" unicode=":" 
d="M246.5 17.5q-25.5 25.5 -25.5 63.5t25.5 63.5t63.5 25.5t63.5 -25.5t25.5 -63.5t-25.5 -63.5t-63.5 -25.5t-63.5 25.5zM246.5 359.5q-25.5 25.5 -25.5 63.5t25.5 63.5t63.5 25.5t63.5 -25.5t25.5 -63.5t-25.5 -63.5t-63.5 -25.5t-63.5 25.5z" />
    <glyph glyph-name="comma" unicode="," 
d="M260 146h167l-155 -302h-87z" />
    <glyph glyph-name="ellipsis" unicode="&#x2026;" 
d="M246.5 17.5q-25.5 25.5 -25.5 63.5t25.5 63.5t63.5 25.5t63.5 -25.5t25.5 -63.5t-25.5 -63.5t-63.5 -25.5t-63.5 25.5zM446.5 17.5q-25.5 25.5 -25.5 63.5t25.5 63.5t63.5 25.5t63.5 -25.5t25.5 -63.5t-25.5 -63.5t-63.5 -25.5t-63.5 25.5zM46.5 17.5
q-25.5 25.5 -25.5 63.5t25.5 63.5t63.5 25.5t63.5 -25.5t25.5 -63.5t-25.5 -63.5t-63.5 -25.5t-63.5 25.5z" />
    <glyph glyph-name="exclam" unicode="!" 
d="M228 700h164l-28 -458h-108zM251 16q-24 24 -24 58q0 35 24.5 59.5t58.5 24.5t58.5 -24.5t24.5 -59.5q0 -34 -24 -58t-59 -24t-59 24z" />
    <glyph glyph-name="exclamdown" unicode="&#xa1;" 
d="M369 480q24 -24 24 -58q0 -35 -24.5 -59.5t-58.5 -24.5t-58.5 24.5t-24.5 59.5q0 34 24 58t59 24t59 -24zM364 254l28 -458h-164l28 458h108z" />
    <glyph glyph-name="numbersign" unicode="#" 
d="M121 193h-94v98h114l24 118h-98v98h118l40 193h100l-40 -193h114l39 193h100l-39 -193h94v-98h-114l-24 -118h98v-98h-118l-40 -193h-100l40 193h-114l-39 -193h-100zM355 291l24 118h-114l-24 -118h114z" />
    <glyph glyph-name="period" unicode="." 
d="M246.5 17.5q-25.5 25.5 -25.5 63.5t25.5 63.5t63.5 25.5t63.5 -25.5t25.5 -63.5t-25.5 -63.5t-63.5 -25.5t-63.5 25.5z" />
    <glyph glyph-name="question" unicode="?" 
d="M211.5 248.5q-38.5 35.5 -38.5 92.5q0 48 28 79t80 51l45 18q55 22 55 65q0 25 -18 37.5t-47 12.5q-31 0 -53 -17.5t-32 -49.5l-109 18q12 66 62.5 109.5t128.5 43.5q84 0 134.5 -43t50.5 -115q0 -48 -25 -78.5t-75 -51.5l-38 -16q-51 -21 -68 -33.5t-17 -32.5
q0 -16 10.5 -25.5t25.5 -9.5q41 0 57 46l88 -33q-17 -48 -54.5 -75.5t-90.5 -27.5q-61 0 -99.5 35.5zM252 18q-24 24 -24 58q0 35 24.5 59.5t58.5 24.5t58.5 -24.5t24.5 -59.5q0 -34 -24 -58t-59 -24t-59 24z" />
    <glyph glyph-name="questiondown" unicode="&#xbf;" 
d="M368 478q24 -24 24 -58q0 -35 -24.5 -59.5t-58.5 -24.5t-58.5 24.5t-24.5 59.5q0 34 24 58t59 24t59 -24zM408.5 247.5q38.5 -35.5 38.5 -92.5q0 -48 -28 -79t-80 -51l-45 -18q-55 -22 -55 -65q0 -25 18 -37.5t47 -12.5q31 0 53 17.5t32 49.5l109 -18
q-12 -66 -62.5 -109.5t-128.5 -43.5q-84 0 -134.5 43t-50.5 115q0 48 25 78.5t75 51.5l38 16q51 21 68 33.5t17 32.5q0 16 -10.5 25.5t-25.5 9.5q-41 0 -57 -46l-88 33q17 48 54.5 75.5t90.5 27.5q61 0 99.5 -35.5z" />
    <glyph glyph-name="quotedbl" unicode="&#x22;" 
d="M144 708h141l-31 -249h-79zM334 708h141l-31 -249h-79z" />
    <glyph glyph-name="quotesingle" unicode="'" 
d="M240 708h141l-31 -249h-79z" />
    <glyph glyph-name="semicolon" unicode=";" 
d="M240 146h167l-155 -302h-87zM246.5 359.5q-25.5 25.5 -25.5 63.5t25.5 63.5t63.5 25.5t63.5 -25.5t25.5 -63.5t-25.5 -63.5t-63.5 -25.5t-63.5 25.5z" />
    <glyph glyph-name="slash" unicode="/" 
d="M458 750h120l-406 -800h-120z" />
    <glyph glyph-name="underscore" unicode="_" 
d="M70 0h480v-108h-480v108z" />
    <glyph glyph-name="bullet.case" 
d="M226.5 266.5q-34.5 34.5 -34.5 83.5t34.5 83.5t83.5 34.5t83.5 -34.5t34.5 -83.5t-34.5 -83.5t-83.5 -34.5t-83.5 34.5z" />
    <glyph glyph-name="exclamdown.case" 
d="M369 684q24 -24 24 -58q0 -35 -24.5 -59.5t-58.5 -24.5t-58.5 24.5t-24.5 59.5q0 34 24 58t59 24t59 -24zM364 458l28 -458h-164l28 458h108z" />
    <glyph glyph-name="questiondown.case" 
d="M368 682q24 -24 24 -58q0 -35 -24.5 -59.5t-58.5 -24.5t-58.5 24.5t-24.5 59.5q0 34 24 58t59 24t59 -24zM408.5 451.5q38.5 -35.5 38.5 -92.5q0 -48 -28 -79t-80 -51l-45 -18q-55 -22 -55 -65q0 -25 18 -37.5t47 -12.5q31 0 53 17.5t32 49.5l109 -18
q-12 -66 -62.5 -109.5t-128.5 -43.5q-84 0 -134.5 43t-50.5 115q0 48 25 78.5t75 51.5l38 16q51 21 68 33.5t17 32.5q0 16 -10.5 25.5t-25.5 9.5q-41 0 -57 -46l-88 33q17 48 54.5 75.5t90.5 27.5q61 0 99.5 -35.5z" />
    <glyph glyph-name="braceleft" unicode="{" 
d="M266.5 -22.5q-27.5 27.5 -27.5 72.5v146q0 54 -27 77t-83 23v108q56 0 83 23t27 77v146q0 45 27.5 72.5t72.5 27.5h170v-108h-109q-24 0 -32.5 -9.5t-8.5 -35.5v-149q0 -54 -19 -73.5t-55 -24.5q36 -5 55 -24.5t19 -73.5v-149q0 -26 8.5 -35.5t32.5 -9.5h109v-108h-170
q-45 0 -72.5 27.5z" />
    <glyph glyph-name="braceright" unicode="}" 
d="M111 58h109q24 0 32.5 9.5t8.5 35.5v149q0 54 19 73.5t55 24.5q-36 5 -55 24.5t-19 73.5v149q0 26 -8.5 35.5t-32.5 9.5h-109v108h170q45 0 72.5 -27.5t27.5 -72.5v-146q0 -54 27 -77t83 -23v-108q-56 0 -83 -23t-27 -77v-146q0 -45 -27.5 -72.5t-72.5 -27.5h-170v108z
" />
    <glyph glyph-name="bracketleft" unicode="[" 
d="M180 750h314v-108h-194v-584h194v-108h-314v800z" />
    <glyph glyph-name="bracketright" unicode="]" 
d="M126 58h194v584h-194v108h314v-800h-314v108z" />
    <glyph glyph-name="parenleft" unicode="(" 
d="M286 61.5q-22 51.5 -36 123t-14 165.5t14 165.5t36 123t55 111.5h107q-47 -85 -69.5 -178.5t-22.5 -221.5q0 -133 22.5 -223t69.5 -177h-107q-33 60 -55 111.5z" />
    <glyph glyph-name="parenright" unicode=")" 
d="M241.5 127q22.5 90 22.5 223q0 128 -22.5 221.5t-69.5 178.5h107q33 -60 55 -111.5t36 -123t14 -165.5t-14 -165.5t-36 -123t-55 -111.5h-107q47 87 69.5 177z" />
    <glyph glyph-name="braceleft.case" 
d="M283.5 27.5q-27.5 27.5 -27.5 72.5v116q0 46 -17.5 63t-62.5 17v108q45 0 62.5 17t17.5 63v116q0 45 27.5 72.5t72.5 27.5h88v-108h-27q-24 0 -32.5 -9.5t-8.5 -35.5v-99q0 -54 -19 -73.5t-55 -24.5q36 -5 55 -24.5t19 -73.5v-99q0 -26 8.5 -35.5t32.5 -9.5h27v-108h-88
q-45 0 -72.5 27.5z" />
    <glyph glyph-name="braceright.case" 
d="M336.5 27.5q27.5 27.5 27.5 72.5v116q0 46 17.5 63t62.5 17v108q-45 0 -62.5 17t-17.5 63v116q0 45 -27.5 72.5t-72.5 27.5h-88v-108h27q24 0 32.5 -9.5t8.5 -35.5v-99q0 -54 19 -73.5t55 -24.5q-36 -5 -55 -24.5t-19 -73.5v-99q0 -26 -8.5 -35.5t-32.5 -9.5h-27v-108h88
q45 0 72.5 27.5z" />
    <glyph glyph-name="bracketleft.case" 
d="M195 700h230v-108h-110v-484h110v-108h-230v700z" />
    <glyph glyph-name="bracketright.case" 
d="M425 700h-230v-108h110v-484h-110v-108h230v700z" />
    <glyph glyph-name="parenleft.case" 
d="M253.5 108.5q-17.5 40.5 -32 103t-14.5 138.5t14.5 138.5t32 103t51.5 108.5h109q-41 -88 -64 -168.5t-23 -181.5q0 -106 22 -183.5t64 -166.5h-108q-34 68 -51.5 108.5z" />
    <glyph glyph-name="parenright.case" 
d="M366.5 108.5q17.5 40.5 32 103t14.5 138.5t-14.5 138.5t-32 103t-51.5 108.5h-109q41 -88 64 -168.5t23 -181.5q0 -106 -22 -183.5t-64 -166.5h108q34 68 51.5 108.5z" />
    <glyph glyph-name="emdash" unicode="&#x2014;" 
d="M65 371h490v-108h-490v108z" />
    <glyph glyph-name="endash" unicode="&#x2013;" 
d="M105 371h409v-108h-409v108z" />
    <glyph glyph-name="hyphen" unicode="-" 
d="M136 371h349v-108h-349v108z" />
    <glyph glyph-name="uni00AD" unicode="&#xad;" 
d="M136 371h349v-108h-349v108z" />
    <glyph glyph-name="emdash.case" 
d="M65 404h490v-108h-490v108z" />
    <glyph glyph-name="endash.case" 
d="M105 404h409v-108h-409v108z" />
    <glyph glyph-name="hyphen.case" 
d="M136 404h349v-108h-349v108z" />
    <glyph glyph-name="uni00AD.case" 
d="M136 371h349v-108h-349v108z" />
    <glyph glyph-name="guillemotleft" unicode="&#xab;" 
d="M27 269v82l309 218v-128l-185 -131l185 -131v-128zM277 269v82l309 218v-128l-185 -131l185 -131v-128z" />
    <glyph glyph-name="guillemotright" unicode="&#xbb;" 
d="M34 179l185 131l-185 131v128l309 -218v-82l-309 -218v128zM284 179l185 131l-185 131v128l309 -218v-82l-309 -218v128z" />
    <glyph glyph-name="guilsinglleft" unicode="&#x2039;" 
d="M155 269v82l309 218v-128l-185 -131l185 -131v-128z" />
    <glyph glyph-name="guilsinglright" unicode="&#x203a;" 
d="M156 179l185 131l-185 131v128l309 -218v-82l-309 -218v128z" />
    <glyph glyph-name="quotedblbase" unicode="&#x201e;" 
d="M167 88h163l-149 -244h-92zM387 88h163l-149 -244h-92z" />
    <glyph glyph-name="quotedblleft" unicode="&#x201c;" 
d="M463 464h-163l149 244h92zM243 464h-163l149 244h92z" />
    <glyph glyph-name="quotedblright" unicode="&#x201d;" 
d="M157 708h163l-149 -244h-92zM377 708h163l-149 -244h-92z" />
    <glyph glyph-name="quoteleft" unicode="&#x2018;" 
d="M437 708l-78 -244h-163l149 244h92z" />
    <glyph glyph-name="quoteright" unicode="&#x2019;" 
d="M274 708h163l-149 -244h-92z" />
    <glyph glyph-name="quotesinglbase" unicode="&#x201a;" 
d="M260 146h167l-155 -302h-87z" />
    <glyph glyph-name="guillemotleft.case" 
d="M30 309v82l309 218v-128l-185 -131l185 -131v-128zM280 309v82l309 218v-128l-185 -131l185 -131v-128z" />
    <glyph glyph-name="guillemotright.case" 
d="M31 219l185 131l-185 131v128l309 -218v-82l-309 -218v128zM281 219l185 131l-185 131v128l309 -218v-82l-309 -218v128z" />
    <glyph glyph-name="guilsinglleft.case" 
d="M155 309v82l309 218v-128l-185 -131l185 -131v-128z" />
    <glyph glyph-name="guilsinglright.case" 
d="M156 219l185 131l-185 131v128l309 -218v-82l-309 -218v128z" />
    <glyph glyph-name="uni00A0" unicode="&#xa0;" 
 />
    <glyph glyph-name="cent" unicode="&#xa2;" 
d="M258 96q-90 19 -137.5 88.5t-47.5 165.5t47.5 165.5t137.5 88.5v146h122v-146q121 -23 168 -138l-111 -45q-20 41 -48.5 62t-69.5 21q-57 0 -86.5 -42.5t-29.5 -111.5t29.5 -111.5t86.5 -42.5q41 0 69.5 21t48.5 62l111 -45q-47 -115 -168 -138v-146h-122v146z" />
    <glyph glyph-name="currency" unicode="&#xa4;" 
d="M45 139l89 69q-25 45 -25 99t25 99l-89 69l97 97l69 -89q44 26 99 26t99 -26l69 89l97 -97l-89 -69q25 -45 25 -99t-25 -99l89 -69l-97 -97l-69 89q-44 -26 -99 -26t-99 26l-69 -89zM369.5 242.5q21.5 24.5 21.5 64.5t-21.5 64.5t-59.5 24.5t-59.5 -24.5t-21.5 -64.5
t21.5 -64.5t59.5 -24.5t59.5 24.5z" />
    <glyph glyph-name="dollar" unicode="$" 
d="M510.5 66q-46.5 -53 -126.5 -68v-98h-122v97q-80 14 -134.5 65t-71.5 136l115 43q12 -56 48.5 -92.5t105.5 -36.5q47 0 74.5 23.5t27.5 67.5q0 29 -15 47t-45 31t-93 33q-87 28 -130 75.5t-43 125.5q0 72 43 122t118 65v98h122v-98q60 -14 99.5 -52t57.5 -92l-105 -53
q-16 43 -46 63t-68 20t-64.5 -20t-26.5 -56q0 -40 30 -61.5t103 -40.5q92 -24 142.5 -69.5t50.5 -132.5q0 -89 -46.5 -142z" />
    <glyph glyph-name="Euro" unicode="&#x20ac;" 
d="M215 49.5q-71 57.5 -96 166.5h-100l50 108h39v52h-89l50 108h50q25 109 96 166.5t171 57.5q77 0 131 -30t85 -87l-108 -64q-16 31 -44.5 48t-63.5 17q-108 0 -140 -108h210l-50 -108h-174v-52h224l-50 -108h-160q32 -108 140 -108q35 0 63.5 17t44.5 48l108 -64
q-31 -57 -85 -87t-131 -30q-100 0 -171 57.5z" />
    <glyph glyph-name="florin" unicode="&#x192;" 
d="M30 -192l46 100q30 -14 57 -14q57 0 70 63l85 441h-129l21 106h130l5 26q17 89 72 133.5t136 44.5q58 0 90 -20l-46 -100q-30 14 -57 14q-57 0 -70 -63l-6 -35h158l-21 -106h-158l-85 -432q-17 -89 -72 -133.5t-136 -44.5q-58 0 -90 20z" />
    <glyph glyph-name="uni20BA" unicode="&#x20ba;" 
d="M572 242v-29q0 -96 -56 -154.5t-163 -58.5h-224v219l-88 -23v108l88 23v62l-88 -23v108l88 23v203h130v-168l157 41v-108l-157 -41v-62l157 41v-108l-157 -41v-134h89q44 0 68 23t24 70v29h132z" />
    <glyph glyph-name="uni20BD" unicode="&#x20bd;" 
d="M242 274v-57h137v-120h-137v-97h-130v97h-77v120h77v57h-77v120h77v306h254q107 0 163 -58.5t56 -154.5t-56 -154.5t-163 -58.5h-124zM242 394h119q44 0 68 23t24 70t-24 70t-68 23h-119v-186z" />
    <glyph glyph-name="sterling" unicode="&#xa3;" 
d="M74 68q54 50 81 88.5t27 88.5q0 27 -9 61h-83v116h48q-16 46 -16 78q0 59 26.5 106.5t74.5 74.5t112 27q78 0 131 -36.5t76 -101.5l-103 -49q-33 71 -104 71q-37 0 -63 -24.5t-26 -74.5q0 -41 8 -71h173v-116h-138q3 -18 3 -38q0 -57 -21 -93.5t-60 -69.5q53 32 99 32
q16 0 27 -3.5t28 -11.5q14 -7 25.5 -11t27.5 -4q20 0 36.5 11.5t35.5 44.5l86 -54q-34 -60 -73.5 -88.5t-91.5 -28.5q-25 0 -43.5 5t-39.5 15q-19 8 -34 12.5t-35 4.5q-31 0 -57 -9t-59 -28z" />
    <glyph glyph-name="yen" unicode="&#xa5;" 
d="M249 118h-146v108h146v72h-146v108h90l-153 294h140l129 -274l129 274h140l-153 -294h85v-108h-141v-72h141v-108h-141v-118h-120v118z" />
    <glyph glyph-name="uni2219" unicode="&#x2219;" 
d="M239.5 231.5q-29.5 29.5 -29.5 71.5t29.5 71.5t71.5 29.5q41 0 70.5 -29.5t29.5 -71.5t-29.5 -71.5t-70.5 -29.5q-42 0 -71.5 29.5z" />
    <glyph glyph-name="uni2215" unicode="&#x2215;" 
d="M453 750h120l-406 -800h-120z" />
    <glyph glyph-name="plus" unicode="+" 
d="M256 263h-184v108h184v184h108v-184h184v-108h-184v-184h-108v184z" />
    <glyph glyph-name="minus" unicode="&#x2212;" 
d="M90 371h440v-108h-440v108z" />
    <glyph glyph-name="multiply" unicode="&#xd7;" 
d="M88 173l146 146l-146 146l76 76l146 -146l146 146l76 -76l-146 -146l146 -146l-76 -76l-146 146l-146 -146z" />
    <glyph glyph-name="divide" unicode="&#xf7;" 
d="M250 446q-24 24 -24 60t24 60t60 24t60 -24t24 -60t-24 -60t-60 -24t-60 24zM72 369h476v-108h-476v108zM250 64q-24 24 -24 60t24 60t60 24t60 -24t24 -60t-24 -60t-60 -24t-60 24z" />
    <glyph glyph-name="equal" unicode="=" 
d="M92 454h436v-108h-436v108zM92 274h436v-108h-436v108z" />
    <glyph glyph-name="notequal" unicode="&#x2260;" 
d="M138 115l29 51h-75v108h136l41 72h-177v108h238l59 103l94 -52l-29 -51h75v-108h-136l-41 -72h177v-108h-238l-59 -103z" />
    <glyph glyph-name="greater" unicode="&#x3e;" 
d="M115 179l252 131l-252 131v131l391 -204v-116l-391 -204v131z" />
    <glyph glyph-name="less" unicode="&#x3c;" 
d="M114 252v116l391 204v-131l-252 -131l252 -131v-131z" />
    <glyph glyph-name="greaterequal" unicode="&#x2265;" 
d="M114 271l252 131l-252 131v131l391 -204v-116l-391 -204v131zM71 108h476v-108h-476v108z" />
    <glyph glyph-name="lessequal" unicode="&#x2264;" 
d="M115 344v116l391 204v-131l-252 -131l252 -131v-131zM73 108h476v-108h-476v108z" />
    <glyph glyph-name="plusminus" unicode="&#xb1;" 
d="M256 343h-184v108h184v184h108v-184h184v-108h-184v-184h-108v184zM90 91h440v-108h-440v108z" />
    <glyph glyph-name="approxequal" unicode="&#x2248;" 
d="M357 351q-25 8 -56 24q-28 14 -47.5 20.5t-41.5 6.5q-51 0 -91 -51l-64 69q19 46 60.5 78.5t90.5 32.5q30 0 55 -8t56 -24q28 -14 47.5 -20.5t41.5 -6.5q51 0 91 51l64 -69q-19 -46 -60.5 -78.5t-90.5 -32.5q-30 0 -55 8zM360 144q-25 8 -56 24q-28 14 -47.5 20.5
t-41.5 6.5q-51 0 -91 -51l-64 69q19 46 60.5 78.5t90.5 32.5q30 0 55 -8t56 -24q28 -14 47.5 -20.5t41.5 -6.5q51 0 91 51l64 -69q-19 -46 -60.5 -78.5t-90.5 -32.5q-30 0 -55 8z" />
    <glyph glyph-name="asciitilde" unicode="~" 
d="M357 249q-25 8 -56 24q-28 14 -47.5 20.5t-41.5 6.5q-51 0 -91 -51l-64 69q19 46 60.5 78.5t90.5 32.5q30 0 55 -8t56 -24q28 -14 47.5 -20.5t41.5 -6.5q51 0 91 51l64 -69q-19 -46 -60.5 -78.5t-90.5 -32.5q-30 0 -55 8z" />
    <glyph glyph-name="logicalnot" unicode="&#xac;" 
d="M423 291h-330v112h450v-261h-120v149z" />
    <glyph glyph-name="infinity" unicode="&#x221e;" 
d="M57 236.5q-42 42.5 -42 122.5t42 122.5t112 42.5q49 0 88 -29t53 -72q14 43 53 72t88 29q70 0 112 -42.5t42 -122.5t-42 -122.5t-112 -42.5q-49 0 -88 29t-53 72q-14 -43 -53 -72t-88 -29q-70 0 -112 42.5zM229.5 301.5q23.5 24.5 33.5 57.5q-10 33 -33.5 57.5
t-52.5 24.5q-33 0 -53 -21.5t-20 -60.5t20 -60.5t53 -21.5q29 0 52.5 24.5zM496 298.5q20 21.5 20 60.5t-20 60.5t-53 21.5q-29 0 -52.5 -24.5t-33.5 -57.5q10 -33 33.5 -57.5t52.5 -24.5q33 0 53 21.5z" />
    <glyph glyph-name="integral" unicode="&#x222b;" 
d="M67 -206.5q-27 5.5 -41 14.5l46 100q30 -14 57 -14q57 0 70 63l112 573q35 178 204 178q29 0 54.5 -5.5t39.5 -14.5l-46 -100q-30 14 -57 14q-57 0 -70 -63l-112 -573q-18 -93 -69 -135.5t-132 -42.5q-29 0 -56 5.5z" />
    <glyph glyph-name="uni2126" unicode="&#x2126;" 
d="M64 110h93q-103 143 -103 308q0 132 65 211t191 79t191 -79t65 -211q0 -165 -103 -308h93v-110h-227v110q49 48 77 129.5t28 166.5q0 182 -124 182t-124 -182q0 -85 28 -166.5t77 -129.5v-110h-227v110z" />
    <glyph glyph-name="uni2206" unicode="&#x2206;" 
d="M50 32l209 668h102l209 -668v-32h-520v32zM423 112l-113 396l-113 -396h226z" />
    <glyph glyph-name="product" unicode="&#x220f;" 
d="M106 700h408v-700h-124v592h-160v-592h-124v700z" />
    <glyph glyph-name="summation" unicode="&#x2211;" 
d="M82 52l224 298l-224 298v52h456v-108h-281l174 -232v-20l-174 -232h281v-108h-456v52z" />
    <glyph glyph-name="radical" unicode="&#x221a;" 
d="M191 277h-119v112h184l71 -226l155 545h120l-220 -708h-102z" />
    <glyph glyph-name="uni00B5" unicode="&#xb5;" 
d="M88 504h124v-323q0 -42 20.5 -62t51.5 -20q35 0 63.5 24.5t45 71t16.5 108.5v201h124v-504h-124v81q-28 -40 -73 -64.5t-93 -24.5q-11 0 -31 2v-198h-124v708z" />
    <glyph glyph-name="partialdiff" unicode="&#x2202;" 
d="M150.5 19q-49.5 27 -77.5 76.5t-28 113.5q0 86 40 155.5t111 108.5t160 39q22 0 45 -6t42 -16q-9 57 -36 84.5t-76 27.5q-36 0 -66.5 -18t-48.5 -56l-113 35q12 40 45 73.5t78 52.5t93 19q134 0 194.5 -84.5t60.5 -255.5q0 -167 -74 -271.5t-237 -104.5q-63 0 -112.5 27z
M364.5 124q34.5 26 52 69.5t17.5 93.5q0 60 -21 89.5t-68 29.5t-84 -27.5t-58 -71t-21 -90.5q0 -51 25 -85t76 -34q47 0 81.5 26z" />
    <glyph glyph-name="percent" unicode="%" 
d="M92.5 409q-37.5 21 -58.5 57.5t-21 81.5t21 81.5t58.5 57.5t84.5 21t84.5 -21t58.5 -57.5t21 -81.5t-21 -81.5t-58.5 -57.5t-84.5 -21t-84.5 21zM229.5 493.5q19.5 21.5 19.5 54.5t-19.5 54.5t-52.5 21.5t-52.5 -21.5t-19.5 -54.5t19.5 -54.5t52.5 -21.5t52.5 21.5z
M31 193l496 369l52 -66l-496 -370zM358.5 13q-37.5 21 -58.5 57.5t-21 81.5t21 81.5t58.5 57.5t84.5 21t84.5 -21t58.5 -57.5t21 -81.5t-21 -81.5t-58.5 -57.5t-84.5 -21t-84.5 21zM495.5 97.5q19.5 21.5 19.5 54.5t-19.5 54.5t-52.5 21.5t-52.5 -21.5t-19.5 -54.5
t19.5 -54.5t52.5 -21.5t52.5 21.5z" />
    <glyph glyph-name="perthousand" unicode="&#x2030;" 
d="M102.5 460q-30.5 18 -48 48.5t-17.5 66.5t17.5 66.5t48 48.5t67.5 18q57 0 95 -38.5t38 -94.5t-38 -94.5t-95 -38.5q-37 0 -67.5 18zM211 533.5q15 16.5 15 41.5t-15 41.5t-41 16.5t-41.5 -16.5t-15.5 -41.5t15.5 -41.5t41.5 -16.5t41 16.5zM22 264l498 365l51 -67
l-498 -365zM194.5 10q-30.5 18 -48 48.5t-17.5 66.5t17.5 66.5t48 48.5t67.5 18q31 0 58 -12.5t45 -34.5q18 22 44.5 34.5t57.5 12.5q57 0 95 -38.5t38 -94.5t-38 -94.5t-95 -38.5q-31 0 -57.5 12.5t-44.5 34.5q-18 -22 -45 -34.5t-58 -12.5q-37 0 -67.5 18zM303 83.5
q15 16.5 15 41.5t-15 41.5t-41 16.5t-41.5 -16.5t-15.5 -41.5t15.5 -41.5t41.5 -16.5t41 16.5zM508 83.5q15 16.5 15 41.5t-15 41.5t-41 16.5t-41.5 -16.5t-15.5 -41.5t15.5 -41.5t41.5 -16.5t41 16.5z" />
    <glyph glyph-name="arrowup" unicode="&#x2191;" 
d="M257 431l-129 -127l-73 71l255 255l255 -255l-73 -71l-129 127v-361h-106v361z" />
    <glyph glyph-name="uni2197" unicode="&#x2197;" 
d="M74 197l255 256l-183 1v102h361v-361h-102l-1 183l-256 -255z" />
    <glyph glyph-name="arrowright" unicode="&#x2192;" 
d="M269 168l127 129h-361v106h361l-127 129l71 73l255 -255l-255 -255z" />
    <glyph glyph-name="uni2198" unicode="&#x2198;" 
d="M161 232h181l-268 267l75 75l267 -268v181h106v-361h-361v106z" />
    <glyph glyph-name="arrowdown" unicode="&#x2193;" 
d="M56 325l73 71l129 -127v361h106v-361l129 127l73 -71l-255 -255z" />
    <glyph glyph-name="uni2199" unicode="&#x2199;" 
d="M98 487h106v-181l267 268l75 -75l-268 -267h181v-106h-361v361z" />
    <glyph glyph-name="arrowleft" unicode="&#x2190;" 
d="M25 350l255 255l71 -73l-127 -129h361v-106h-361l127 -129l-71 -73z" />
    <glyph glyph-name="uni2196" unicode="&#x2196;" 
d="M216 378l-1 -183h-102v361h361v-102l-183 -1l255 -256l-74 -74z" />
    <glyph glyph-name="arrowboth" unicode="&#x2194;" 
d="M620 350l-210 -210l-71 74l82 83h-222l82 -83l-71 -74l-210 210l210 210l71 -74l-82 -83h222l-82 83l71 74z" />
    <glyph glyph-name="arrowupdn" unicode="&#x2195;" 
d="M257 579l-129 -127l-73 71l255 255l255 -255l-73 -71l-129 127v-361h-106v361zM55 177l73 71l129 -127v361h106v-361l129 127l73 -71l-255 -255z" />
    <glyph glyph-name="lozenge" unicode="&#x25ca;" 
d="M68 350l182 350h120l182 -350l-182 -350h-120zM428 350l-118 244l-118 -244l118 -244z" />
    <glyph glyph-name="uniF8FF" unicode="&#xf8ff;" 
d="M20.5 6.5q-6.5 6.5 -6.5 15.5v595q0 7 4.5 13.5t11.5 8.5l270 78l10 2l10 -2l270 -78q7 -2 11.5 -8.5t4.5 -13.5v-595q0 -9 -6.5 -15.5t-15.5 -6.5l-7 1l-267 77l-267 -77l-7 -1q-9 0 -15.5 6.5zM288 669l-230 -67q4 -62 35 -114t82.5 -84.5t112.5 -37.5v303z
M444.5 403.5q51.5 32.5 82.5 84.5t35 114l-230 67v-303q61 5 112.5 37.5zM288 118v204q-73 6 -134 43.5t-97 97.5v-412zM563 463q-37 -60 -97.5 -97.5t-133.5 -43.5v-204l231 -67v412z" />
    <glyph glyph-name="at" unicode="@" 
d="M186 -49.5q-73 44.5 -113.5 129t-40.5 202.5v39q0 125 39.5 214.5t108 136t155.5 46.5q117 0 189 -56t72 -164v-391h-100l-8 44q-39 -52 -108 -52q-54 0 -94.5 27t-63 74t-22.5 104q0 90 49 147t131 57q35 0 65.5 -12t49.5 -32v21q0 127 -151 127q-56 0 -101.5 -33
t-72.5 -99.5t-27 -161.5v-34q0 -102 35.5 -163t84.5 -85t97 -24q47 0 82 16t69 49l57 -89q-38 -37 -92 -59.5t-122 -22.5q-95 0 -168 44.5zM468 220q25 32 25 84t-25 83.5t-69 31.5t-69 -31.5t-25 -83.5t25 -84t69 -32t69 32z" />
    <glyph glyph-name="ampersand" unicode="&#x26;" 
d="M121.5 17.5q-50.5 25.5 -79.5 74t-29 114.5q0 73 37.5 128t95.5 88q-22 31 -35 66.5t-13 70.5q0 41 20 75t57 54t86 20q50 0 86.5 -19.5t56 -52t19.5 -68.5q0 -59 -32.5 -105.5t-81.5 -72.5l115 -151q28 53 51 126l72 -84q-18 -77 -52 -135l112 -146h-147l-41 54
q-78 -62 -184 -62q-63 0 -113.5 25.5zM311 555q0 21 -14 34t-36 13q-23 0 -38 -14t-15 -37q0 -21 8 -39t24 -38q71 32 71 81zM298.5 116.5q26.5 9.5 51.5 29.5l-141 188q-36 -22 -56 -55t-20 -71q0 -43 28.5 -72t74.5 -29q36 0 62.5 9.5z" />
    <glyph glyph-name="paragraph" unicode="&#xb6;" 
d="M220 314q-53 0 -97 26t-70 70.5t-26 96.5t26 96.5t70 70.5t97 26h372v-106h-52v-798h-124v798h-72v-798h-124v518z" />
    <glyph glyph-name="section" unicode="&#xa7;" 
d="M176 -170q-56 42 -77 116l105 46q11 -41 31.5 -59.5t37 -21.5t36.5 -3q33 0 56 18t23 50t-29.5 53t-96.5 51q-65 30 -77 36q-114 58 -114 163q0 46 22 78t54 46q-44 47 -44 119q0 57 28 99t75 64.5t102 22.5q81 0 137 -42t77 -116l-105 -46q-11 41 -31.5 59.5t-37 21.5
t-36.5 3q-33 0 -56 -18t-23 -50t29.5 -53t96.5 -51q65 -30 77 -36q114 -58 114 -163q0 -46 -22 -78t-54 -46q44 -47 44 -119q0 -57 -28 -99t-75 -64.5t-102 -22.5q-81 0 -137 42zM407.5 182q12.5 14 12.5 31q0 31 -32 53.5t-99 51.5l-41 18q-22 -8 -34.5 -22t-12.5 -31
q0 -31 32 -53.5t99 -51.5l41 -18q22 8 34.5 22z" />
    <glyph glyph-name="copyright" unicode="&#xa9;" 
d="M168.5 103q-63.5 37 -99.5 102t-36 145t36 145t99.5 102t141.5 37t141.5 -37t99.5 -102t36 -145t-36 -145t-99.5 -102t-141.5 -37t-141.5 37zM413.5 166q45.5 27 71.5 75t26 109t-26 109t-71.5 75t-103.5 27t-103.5 -27t-71.5 -75t-26 -109t26 -109t71.5 -75t103.5 -27
t103.5 27zM240 209.5q-34 17.5 -55.5 53t-21.5 87.5t21.5 87.5t55.5 53t70 17.5q52 0 87 -28t42 -75l-62 -14q-10 28 -25.5 40t-41.5 12q-37 0 -56.5 -24t-19.5 -69t19.5 -69t56.5 -24q26 0 41.5 12t25.5 40l62 -14q-7 -47 -42 -75t-87 -28q-36 0 -70 17.5z" />
    <glyph glyph-name="registered" unicode="&#xae;" 
d="M168.5 103q-63.5 37 -99.5 102t-36 145t36 145t99.5 102t141.5 37t141.5 -37t99.5 -102t36 -145t-36 -145t-99.5 -102t-141.5 -37t-141.5 37zM413.5 166q45.5 27 71.5 75t26 109t-26 109t-71.5 75t-103.5 27t-103.5 -27t-71.5 -75t-26 -109t26 -109t71.5 -75t103.5 -27
t103.5 27zM211 498h108q45 0 71 -23.5t26 -63.5q0 -30 -16.5 -52.5t-43.5 -30.5l87 -126h-71l-85 121h-14v-121h-62v296zM316 382q19 0 27.5 7t8.5 22q0 28 -36 28h-43v-57h43z" />
    <glyph glyph-name="uni2117" unicode="&#x2117;" 
d="M451.5 597q63.5 -37 99.5 -102t36 -145t-36 -145t-99.5 -102t-141.5 -37t-141.5 37t-99.5 102t-36 145t36 145t99.5 102t141.5 37t141.5 -37zM413.5 166q45.5 27 71.5 75t26 109t-26 109t-71.5 75t-103.5 27t-103.5 -27t-71.5 -75t-26 -109t26 -109t71.5 -75t103.5 -27
t103.5 27zM390 474.5q26 -23.5 26 -63.5t-26 -63.5t-71 -23.5h-46v-122h-62v296h108q45 0 71 -23.5zM352 411q0 28 -36 28h-43v-56h43q36 0 36 28z" />
    <glyph glyph-name="trademark" unicode="&#x2122;" 
d="M81 610h-76v90h244v-90h-76v-310h-92v310zM285 700h87l77 -207l77 207h89v-400h-90v219l-57 -164h-38l-60 164v-219h-85v400z" />
    <glyph glyph-name="degree" unicode="&#xb0;" 
d="M199 443.5q-43 43.5 -43 109.5t43 109.5t111 43.5t111 -43.5t43 -109.5t-43 -109.5t-111 -43.5t-111 43.5zM345 517.5q13 13.5 13 35.5t-13 35.5t-35 13.5t-35 -13.5t-13 -35.5t13 -35.5t35 -13.5t35 13.5z" />
    <glyph glyph-name="bar" unicode="|" 
d="M248 750h124v-800h-124v800z" />
    <glyph glyph-name="brokenbar" unicode="&#xa6;" 
d="M248 750h124v-349h-124v349zM248 299h124v-349h-124v349z" />
    <glyph glyph-name="dagger" unicode="&#x2020;" 
d="M249 396h-159v108h159v246h122v-246h159v-108h-159v-446h-122v446z" />
    <glyph glyph-name="uni2113" unicode="&#x2113;" 
d="M505 144q-19 -77 -63 -114.5t-123 -37.5q-98 0 -142.5 49t-44.5 144v55l-55 -32l-57 100q64 36 112 67v157q0 81 42.5 128.5t124.5 47.5q77 0 113.5 -40.5t36.5 -95.5q0 -116 -171 -240l-16 -11v-154q0 -34 17 -51.5t47 -17.5q28 0 46 20.5t28 63.5zM269.5 591.5
q-7.5 -10.5 -7.5 -29.5v-93q57 52 57 100q0 33 -27 33q-15 0 -22.5 -10.5z" />
    <glyph glyph-name="daggerdbl" unicode="&#x2021;" 
d="M249 196h-159v108h159v92h-159v108h159v246h122v-246h159v-108h-159v-92h159v-108h-159v-246h-122v246z" />
    <glyph glyph-name="estimated" unicode="&#x212e;" 
d="M133 195q27 -40 74.5 -65t102.5 -25q68 0 123.5 31.5t81.5 86.5h44q-33 -69 -101 -112t-148 -43q-82 0 -145 37.5t-97.5 102t-34.5 142.5t34.5 142.5t97.5 102.5t145 38q80 0 143 -36t98.5 -100.5t35.5 -146.5h-454v-155zM209 574q-47 -23 -76 -61v-126h358v123
q-25 37 -73.5 62t-107.5 25q-54 0 -101 -23z" />
    <glyph glyph-name="uni2116" unicode="&#x2116;" 
d="M397 488q-33 36 -33 92t33 92t92 36t92 -36t33 -92t-33 -92t-92 -36t-92 36zM12 700h120l87 -350v350h120v-700h-120l-87 348v-348h-120v700zM518.5 545q11.5 13 11.5 35t-11.5 35t-29.5 13t-29.5 -13t-11.5 -35t11.5 -35t29.5 -13t29.5 13zM364 396h250v-98h-250v98z
" />
    <glyph glyph-name="asciicircum" unicode="^" 
d="M256 700h107l195 -297h-125l-123 189l-124 -189h-125z" />
    <glyph glyph-name="uni2120" unicode="&#x2120;" 
d="M52 323.5q-36 31.5 -44 80.5l70 42q11 -74 64 -74q17 0 28.5 11.5t11.5 31.5q0 22 -16.5 38t-54.5 35q-38 18 -59.5 44.5t-21.5 69.5q0 49 34 77.5t79 28.5q39 0 66.5 -17.5t40.5 -52.5l-61 -45q-6 21 -18.5 30t-26.5 9q-15 0 -25.5 -9t-10.5 -22q0 -19 18 -32t69 -38
q36 -18 53.5 -44t17.5 -64q0 -62 -34.5 -96.5t-90.5 -34.5q-53 0 -89 31.5zM300 700h75l77 -233l77 233h75v-400h-75v190l-53 -153h-48l-53 153v-190h-75v400z" />
    <glyph glyph-name="uni0308" unicode="&#x308;" horiz-adv-x="0" 
d="M-464 596q-20 20 -20 51t20 51t51 20t51 -20t20 -51t-20 -51t-51 -20t-51 20zM-258 596q-20 20 -20 51t20 51t51 20t51 -20t20 -51t-20 -51t-51 -20t-51 20z" />
    <glyph glyph-name="uni0307" unicode="&#x307;" horiz-adv-x="0" 
d="M-367 571q-23 23 -23 57t23 57t57 23t57 -23t23 -57t-23 -57t-57 -23t-57 23z" />
    <glyph glyph-name="gravecomb" unicode="&#x300;" horiz-adv-x="0" 
d="M-426 708h168l64 -148h-95z" />
    <glyph glyph-name="acutecomb" unicode="&#x301;" horiz-adv-x="0" 
d="M-362 708h168l-137 -148h-95z" />
    <glyph glyph-name="uni030B" unicode="&#x30b;" horiz-adv-x="0" 
d="M-475 708h168l-138 -148h-94zM-272 708h168l-138 -148h-94z" />
    <glyph glyph-name="caroncomb.alt" horiz-adv-x="0" 
d="M-361 726h136l-82 -184h-79z" />
    <glyph glyph-name="uni0302" unicode="&#x302;" horiz-adv-x="0" 
d="M-327 734h34l171 -174h-122l-66 69l-66 -69h-122z" />
    <glyph glyph-name="uni030C" unicode="&#x30c;" horiz-adv-x="0" 
d="M-498 734h122l66 -69l66 69h122l-171 -174h-34z" />
    <glyph glyph-name="uni0306" unicode="&#x306;" horiz-adv-x="0" 
d="M-395.5 623q-32.5 32 -32.5 77h91q0 -12 7.5 -20t19.5 -8t19.5 8t7.5 20h91q0 -45 -32.5 -77t-85.5 -32t-85.5 32z" />
    <glyph glyph-name="uni030A" unicode="&#x30a;" horiz-adv-x="0" 
d="M-384 582q-29 29 -29 73t29 73t74 29t74 -29t29 -73t-29 -73t-74 -29t-74 29zM-288 632q8 9 8 23t-8 23t-22 9t-22 -9t-8 -23t8 -23t22 -9t22 9z" />
    <glyph glyph-name="tildecomb" unicode="&#x303;" horiz-adv-x="0" 
d="M-284 577q-17 6 -37 17q-18 9 -29 13.5t-26 4.5q-35 0 -64 -40l-65 52q17 39 51 63t72 24q24 0 41 -6t37 -17q18 -9 29 -13.5t26 -4.5q33 0 64 43l65 -55q-17 -39 -51 -63t-72 -24q-24 0 -41 6z" />
    <glyph glyph-name="uni0304" unicode="&#x304;" horiz-adv-x="0" 
d="M-444 692h268v-98h-268v98z" />
    <glyph glyph-name="uni0312" unicode="&#x312;" horiz-adv-x="0" 
d="M-301 754h80l-43 -168h-136z" />
    <glyph glyph-name="uni0326" unicode="&#x326;" horiz-adv-x="0" 
d="M-364 -52h152l-130 -184h-66z" />
    <glyph glyph-name="uni0327" unicode="&#x327;" horiz-adv-x="0" 
d="M-425 -200l141 140h90l-83 -206z" />
    <glyph glyph-name="uni0328" unicode="&#x328;" horiz-adv-x="0" 
d="M-364.5 -161q-26.5 24 -26.5 66q0 28 16 53.5t41 41.5h86q-58 -47 -58 -78q0 -12 6.5 -19t19.5 -7q14 0 31 10l20 -76q-28 -15 -65 -15q-44 0 -70.5 24z" />
    <glyph glyph-name="uni0335" unicode="&#x335;" horiz-adv-x="0" 
d="M-463 396h307v-92h-307v92z" />
    <glyph glyph-name="uni0336" unicode="&#x336;" horiz-adv-x="0" 
d="M-594 404h568v-108h-568v108z" />
    <glyph glyph-name="uni0337" unicode="&#x337;" horiz-adv-x="0" 
d="M-474 336l275 150l53 -95l-275 -150z" />
    <glyph glyph-name="uni0338" unicode="&#x338;" horiz-adv-x="0" 
d="M-573 3l440 561l86 -63l-440 -561z" />
    <glyph glyph-name="uni0308.cap" horiz-adv-x="0" 
d="M-463 792q-20 20 -20 51t20 51t51 20t51 -20t20 -51t-20 -51t-51 -20t-51 20zM-257 792q-20 20 -20 51t20 51t51 20t51 -20t20 -51t-20 -51t-51 -20t-51 20z" />
    <glyph glyph-name="uni0307.cap" horiz-adv-x="0" 
d="M-367 787q-23 23 -23 57t23 57t57 23t57 -23t23 -57t-23 -57t-57 -23t-57 23z" />
    <glyph glyph-name="gravecomb.cap" horiz-adv-x="0" 
d="M-426 904h168l64 -148h-95z" />
    <glyph glyph-name="acutecomb.cap" horiz-adv-x="0" 
d="M-362 904h168l-137 -148h-95z" />
    <glyph glyph-name="uni030B.cap" horiz-adv-x="0" 
d="M-475 904h168l-138 -148h-94zM-272 904h168l-138 -148h-94z" />
    <glyph glyph-name="uni0302.cap" horiz-adv-x="0" 
d="M-327 930h34l171 -174h-122l-66 69l-66 -69h-122z" />
    <glyph glyph-name="uni030C.cap" horiz-adv-x="0" 
d="M-498 930h122l66 -69l66 69h122l-171 -174h-34z" />
    <glyph glyph-name="uni0306.cap" horiz-adv-x="0" 
d="M-395.5 819q-32.5 32 -32.5 77h91q0 -12 7.5 -20t19.5 -8t19.5 8t7.5 20h91q0 -45 -32.5 -77t-85.5 -32t-85.5 32z" />
    <glyph glyph-name="uni030A.cap" horiz-adv-x="0" 
d="M-384 778q-29 29 -29 73t29 73t74 29t74 -29t29 -73t-29 -73t-74 -29t-74 29zM-288 828q8 9 8 23t-8 23t-22 9t-22 -9t-8 -23t8 -23t22 -9t22 9z" />
    <glyph glyph-name="tildecomb.cap" horiz-adv-x="0" 
d="M-284 773q-17 6 -37 17q-18 9 -29 13.5t-26 4.5q-35 0 -64 -40l-65 52q17 39 51 63t72 24q24 0 41 -6t37 -17q18 -9 29 -13.5t26 -4.5q33 0 64 43l65 -55q-17 -39 -51 -63t-72 -24q-24 0 -41 6z" />
    <glyph glyph-name="uni0304.cap" horiz-adv-x="0" 
d="M-444 888h268v-98h-268v98z" />
    <glyph glyph-name="uni0327.cap" horiz-adv-x="0" 
d="M-425 -200l141 140h90l-83 -206z" />
    <glyph glyph-name="uni0328.cap" horiz-adv-x="0" 
d="M-364.5 -161q-26.5 24 -26.5 66q0 28 16 53.5t41 41.5h86q-58 -47 -58 -78q0 -12 6.5 -19t19.5 -7q14 0 31 10l20 -76q-28 -15 -65 -15q-44 0 -70.5 24z" />
    <glyph glyph-name="uni0335.cap" horiz-adv-x="0" 
d="M-498 404h376v-108h-376v108z" />
    <glyph glyph-name="uni0337.cap" horiz-adv-x="0" 
d="M-508 316l350 162l47 -98l-351 -163z" />
    <glyph glyph-name="uni0338.cap" horiz-adv-x="0" 
d="M-620 22l558 719l86 -63l-558 -719z" />
    <glyph glyph-name="uni02C9" unicode="&#x2c9;" 
d="M176 692h268v-98h-268v98z" />
    <glyph glyph-name="acute" unicode="&#xb4;" 
d="M258 708h168l-137 -148h-95z" />
    <glyph glyph-name="breve" unicode="&#x2d8;" 
d="M224.5 623q-32.5 32 -32.5 77h91q0 -12 7.5 -20t19.5 -8t19.5 8t7.5 20h91q0 -45 -32.5 -77t-85.5 -32t-85.5 32z" />
    <glyph glyph-name="caron" unicode="&#x2c7;" 
d="M122 734h122l66 -69l66 69h122l-171 -174h-34z" />
    <glyph glyph-name="cedilla" unicode="&#xb8;" 
d="M175 -200l141 140h90l-83 -206z" />
    <glyph glyph-name="circumflex" unicode="&#x2c6;" 
d="M293 734h34l171 -174h-122l-66 69l-66 -69h-122z" />
    <glyph glyph-name="dieresis" unicode="&#xa8;" 
d="M156 596q-20 20 -20 51t20 51t51 20t51 -20t20 -51t-20 -51t-51 -20t-51 20zM362 596q-20 20 -20 51t20 51t51 20t51 -20t20 -51t-20 -51t-51 -20t-51 20z" />
    <glyph glyph-name="dotaccent" unicode="&#x2d9;" 
d="M253 571q-23 23 -23 57t23 57t57 23t57 -23t23 -57t-23 -57t-57 -23t-57 23z" />
    <glyph glyph-name="grave" unicode="`" 
d="M183 708h168l64 -148h-95z" />
    <glyph glyph-name="hungarumlaut" unicode="&#x2dd;" 
d="M157 708h168l-138 -148h-94zM360 708h168l-138 -148h-94z" />
    <glyph glyph-name="macron" unicode="&#xaf;" 
d="M176 692h268v-98h-268v98z" />
    <glyph glyph-name="ogonek" unicode="&#x2db;" 
d="M255.5 -161q-26.5 24 -26.5 66q0 28 16 53.5t41 41.5h86q-58 -47 -58 -78q0 -12 6.5 -19t19.5 -7q14 0 31 10l20 -76q-28 -15 -65 -15q-44 0 -70.5 24z" />
    <glyph glyph-name="ring" unicode="&#x2da;" 
d="M236 582q-29 29 -29 73t29 73t74 29t74 -29t29 -73t-29 -73t-74 -29t-74 29zM332 632q8 9 8 23t-8 23t-22 9t-22 -9t-8 -23t8 -23t22 -9t22 9z" />
    <glyph glyph-name="tilde" unicode="&#x2dc;" 
d="M336 577q-17 6 -37 17q-18 9 -29 13.5t-26 4.5q-35 0 -64 -40l-65 52q17 39 51 63t72 24q24 0 41 -6t37 -17q18 -9 29 -13.5t26 -4.5q33 0 64 43l65 -55q-17 -39 -51 -63t-72 -24q-24 0 -41 6z" />
  </font>
</defs>
</svg>
