<?xml version="1.0" encoding="UTF-8" standalone="no"?>
<svg width="327px" height="248px" viewBox="0 0 327 248" version="1.1" xmlns="http://www.w3.org/2000/svg" xmlns:xlink="http://www.w3.org/1999/xlink">
    <!-- Generator: Sketch 39.1 (31720) - http://www.bohemiancoding.com/sketch -->
    <title>Page 1</title>
    <desc>Created with Sketch.</desc>
    <defs></defs>
    <g id="v1" stroke="none" stroke-width="1" fill="none" fill-rule="evenodd">
        <g id="Page-1">
            <polygon id="Fill-1" fill="#FFFFFF" points="10 -9.99999993e-05 10 238.9999 327 238.9999 327 72.4999 323.667 78.9999 247 78.9999 247 2.1669 255 -9.99999993e-05"></polygon>
            <polygon id="Fill-2" fill="#000000" points="0 -9.99999993e-05 0 247.9999 327 247.9999 327 72.4999 314 59.4999 314 234.9999 13 234.9999 13 12.9999 268 12.9999 255 -0.0001"></polygon>
            <path d="M241.9997,-9.99999993e-05 L241.9997,85.9999 L326.9997,85.9999 L326.9997,67.5119 L261.7497,-9.99999993e-05 L241.9997,-9.99999993e-05 Z M255.0007,14.2199 L284.1367,43.7249 L313.4467,72.9999 L255.0007,72.9999 L255.0007,14.2199 Z" id="Fill-3" fill="#050505"></path>
        </g>
    </g>
</svg>